<svg width="11" height="14" viewBox="0 0 11 14" fill="none" xmlns="http://www.w3.org/2000/svg">
<path d="M7.39733 2.59937C6.93777 3.14318 6.20247 3.57211 5.46717 3.51083C5.37526 2.77553 5.73525 1.99428 6.15652 1.51174C6.61608 0.952606 7.42031 0.554319 8.07136 0.523682C8.14795 1.28962 7.84923 2.04023 7.39733 2.59937ZM8.0637 3.65636C6.99905 3.59508 6.08758 4.26145 5.58206 4.26145C5.06889 4.26145 4.29529 3.687 3.45276 3.70231C2.35747 3.71763 1.33878 4.33804 0.779647 5.3261C-0.369256 7.30221 0.480932 10.2281 1.59154 11.8366C2.13535 12.6331 2.7864 13.5063 3.64425 13.4757C4.45614 13.445 4.77783 12.9472 5.75823 12.9472C6.74629 12.9472 7.02968 13.4757 7.88753 13.4603C8.77602 13.445 9.33515 12.6638 9.87896 11.8672C10.4994 10.9634 10.7521 10.0826 10.7674 10.0366C10.7521 10.0213 9.05175 9.37024 9.03643 7.40944C9.02112 5.77034 10.3768 4.98909 10.4381 4.94313C9.67216 3.80955 8.4773 3.687 8.0637 3.65636Z" fill="#22176D"/>
</svg>
