<svg width="118" height="30" viewBox="0 0 118 30" fill="none" xmlns="http://www.w3.org/2000/svg">
<path d="M8.65031 25.22C6.78365 25.22 5.34365 24.76 4.33031 23.84C3.33031 22.9333 2.83031 21.66 2.83031 20.02C2.83031 19.4067 2.91031 18.7467 3.07031 18.04C3.24365 17.32 3.47698 16.6133 3.77031 15.92L5.29031 16.38C5.03698 16.9267 4.83031 17.4867 4.67031 18.06C4.51031 18.6333 4.43031 19.1533 4.43031 19.62C4.43031 20.62 4.74365 21.4 5.37031 21.96C5.99698 22.52 6.86365 22.8 7.97031 22.8H9.35031C10.6436 22.8 11.5903 22.5333 12.1903 22C12.8036 21.4533 13.1103 20.5933 13.1103 19.42C13.1103 19.0467 13.077 18.62 13.0103 18.14C12.9436 17.6467 12.8436 17.08 12.7103 16.44L12.3303 14.68L14.0703 14.34L14.3903 16.08C14.5236 16.7867 14.6236 17.4133 14.6903 17.96C14.757 18.5067 14.7903 18.9933 14.7903 19.42C14.7903 21.4067 14.297 22.8667 13.3103 23.8C12.3236 24.7467 10.7703 25.22 8.65031 25.22ZM8.73031 14.34C8.42365 14.34 8.17698 14.2467 7.99031 14.06C7.81698 13.8733 7.73031 13.5867 7.73031 13.2C7.73031 12.8 7.81698 12.5133 7.99031 12.34C8.17698 12.1533 8.42365 12.06 8.73031 12.06H9.03031C9.33698 12.06 9.58365 12.1533 9.77031 12.34C9.95698 12.5133 10.0503 12.8 10.0503 13.2C10.0503 13.5867 9.95698 13.8733 9.77031 14.06C9.58365 14.2467 9.33698 14.34 9.03031 14.34H8.73031ZM16.1478 24.54H17.3078C18.7078 24.54 19.8011 24.3133 20.5878 23.86C21.3745 23.42 21.8945 22.8 22.1478 22H19.7478C18.6678 22 17.8278 21.7067 17.2278 21.12C16.6411 20.5333 16.3478 19.7 16.3478 18.62C16.3478 17.98 16.4411 17.38 16.6278 16.82C16.8278 16.26 17.0945 15.78 17.4278 15.38C17.7745 14.9667 18.1811 14.64 18.6478 14.4C19.1145 14.16 19.6278 14.04 20.1878 14.04C21.3611 14.04 22.2745 14.54 22.9278 15.54C23.5945 16.54 23.9411 17.94 23.9678 19.74H24.9078V21.52L24.4278 22H23.7478C23.4145 23.5333 22.7145 24.7133 21.6478 25.54C20.5945 26.38 19.1745 26.8 17.3878 26.8H16.1478V24.54ZM18.0078 18.34C18.0078 18.8333 18.1611 19.1933 18.4678 19.42C18.7745 19.6333 19.2278 19.74 19.8278 19.74H22.3078V19.36C22.3078 18.44 22.0945 17.7067 21.6678 17.16C21.2411 16.6 20.6878 16.32 20.0078 16.32C19.3945 16.32 18.9078 16.5067 18.5478 16.88C18.1878 17.2533 18.0078 17.74 18.0078 18.34ZM24.4223 20.22L24.9023 19.74H27.0423V21.52L26.5623 22H24.4223V20.22ZM26.5708 20.22L27.0508 19.74H29.1908V21.52L28.7108 22H26.5708V20.22ZM28.7192 20.22L29.1992 19.74H31.3392V21.52L30.8592 22H28.7192V20.22ZM30.8677 20.22L31.3477 19.74H33.4877V21.52L33.0077 22H30.8677V20.22ZM33.0161 20.22L33.4961 19.74H35.6361V21.52L35.1561 22H33.0161V20.22ZM35.1645 20.22L35.6445 19.74H37.7845V21.52L37.3045 22H35.1645V20.22ZM37.313 20.22L37.793 19.74H39.933V21.52L39.453 22H37.313V20.22ZM39.4614 20.22L39.9414 19.74H42.0814V21.52L41.6014 22H39.4614V20.22ZM41.6098 20.22L42.0898 19.74H44.2298V21.52L43.7498 22H41.6098V20.22ZM43.7583 20.22L44.2383 19.74H46.3783V21.52L45.8983 22H43.7583V20.22ZM45.9067 20.22L46.3867 19.74H48.5267V21.52L48.0467 22H45.9067V20.22ZM48.0552 20.22L48.5352 19.74H50.6752V21.52L50.1952 22H48.0552V20.22ZM50.2036 20.22L50.6836 19.74H52.8236V21.52L52.3436 22H50.2036V20.22ZM52.352 20.22L52.832 19.74H54.972V21.52L54.492 22H52.352V20.22ZM54.5005 20.22L54.9805 19.74H55.6405C56.7471 19.74 57.3005 19.2133 57.3005 18.16V15.12H59.0405V18.16C59.0405 19.2133 59.5605 19.74 60.6005 19.74H61.3605V21.52L60.8605 22C59.8738 22 59.1071 21.82 58.5605 21.46C58.0271 21.0867 57.6738 20.5067 57.5005 19.72H57.3805C57.2205 20.5467 56.9205 21.1333 56.4805 21.48C56.0538 21.8267 55.3938 22 54.5005 22V20.22ZM58.0005 13.08C57.6938 13.08 57.4471 12.9867 57.2605 12.8C57.0871 12.6133 57.0005 12.3267 57.0005 11.94C57.0005 11.54 57.0871 11.2533 57.2605 11.08C57.4471 10.8933 57.6938 10.8 58.0005 10.8H58.3005C58.6071 10.8 58.8538 10.8933 59.0405 11.08C59.2271 11.2533 59.3205 11.54 59.3205 11.94C59.3205 12.3267 59.2271 12.6133 59.0405 12.8C58.8538 12.9867 58.6071 13.08 58.3005 13.08H58.0005ZM60.8872 20.22L61.3672 19.74H62.0272C63.1339 19.74 63.6872 19.2133 63.6872 18.16V15.12H65.4272V18.16C65.4272 19.2133 65.9472 19.74 66.9872 19.74H67.7472V21.52L67.2472 22C66.2605 22 65.4939 21.82 64.9472 21.46C64.4139 21.0867 64.0605 20.5067 63.8872 19.72H63.7672C63.6072 20.5467 63.3072 21.1333 62.8672 21.48C62.4405 21.8267 61.7805 22 60.8872 22V20.22ZM64.3872 26.14C64.0805 26.14 63.8339 26.0467 63.6472 25.86C63.4739 25.6733 63.3872 25.3867 63.3872 25C63.3872 24.6 63.4739 24.3067 63.6472 24.12C63.8339 23.9467 64.0805 23.86 64.3872 23.86H64.6872C64.9939 23.86 65.2405 23.9467 65.4272 24.12C65.6139 24.3067 65.7072 24.6 65.7072 25C65.7072 25.3867 65.6139 25.6733 65.4272 25.86C65.2405 26.0467 64.9939 26.14 64.6872 26.14H64.3872ZM67.2739 20.22L67.7539 19.74H68.4539C69.0406 19.74 69.4472 19.6133 69.6739 19.36C69.9139 19.1067 70.0339 18.7067 70.0339 18.16V7.2H71.9139V18.16C71.9139 19.48 71.6472 20.4533 71.1139 21.08C70.5806 21.6933 69.6939 22 68.4539 22H67.2739V20.22ZM74.6808 7.2H76.5408V22H74.6808V7.2Z" fill="#110B36"/>
<path d="M103.002 30.0001C104.622 30.0001 105.936 28.6865 105.936 27.0662C105.936 25.4459 104.622 24.1323 103.002 24.1323C101.381 24.1323 100.068 25.4459 100.068 27.0662C100.068 28.6865 101.381 30.0001 103.002 30.0001Z" fill="#44C0C0"/>
<path d="M88.0035 19.2003L92.2783 16.186C94.1892 18.0823 96.5933 19.4743 99.2897 20.1539L92.1979 25.1521L88.0035 19.2003Z" fill="#ED4626"/>
<path d="M106.542 20.2268C109.239 19.602 111.668 18.2648 113.616 16.416L117.883 19.5983L113.528 25.4369L106.542 20.2268Z" fill="#ED4626"/>
<path d="M118 10.8004L113.725 13.8147C111.814 11.9184 109.41 10.5264 106.714 9.84682L113.806 4.84863L118 10.8004Z" fill="#F8BB13"/>
<path d="M99.4613 9.77381C96.7649 10.3986 94.3352 11.7358 92.3878 13.5846L88.124 10.3986L92.4792 4.56006L99.465 9.77015L99.4613 9.77381Z" fill="#F8BB13"/>
<path d="M103.002 5.86775C104.622 5.86775 105.936 4.55421 105.936 2.93388C105.936 1.31354 104.622 0 103.002 0C101.381 0 100.068 1.31354 100.068 2.93388C100.068 4.55421 101.381 5.86775 103.002 5.86775Z" fill="#6A6DB2"/>
</svg>
