<svg width="18" height="20" viewBox="0 0 18 20" fill="none" xmlns="http://www.w3.org/2000/svg">
<path d="M7.54058 18.1001C7.69857 18.3737 7.9258 18.6009 8.19943 18.7589C8.47306 18.9169 8.78345 19 9.0994 19C9.41536 19 9.72575 18.9169 9.99938 18.7589C10.273 18.6009 10.5002 18.3737 10.6582 18.1001" stroke="#060415" stroke-width="1.5" stroke-linecap="round" stroke-linejoin="round"/>
<path d="M1.23515 12.9934C1.11757 13.1223 1.03998 13.2826 1.01181 13.4547C0.983643 13.6269 1.00611 13.8035 1.07648 13.9631C1.14685 14.1227 1.26209 14.2585 1.40818 14.3538C1.55427 14.4491 1.72491 14.4999 1.89935 14.5001H16.2996C16.474 14.5001 16.6447 14.4495 16.7908 14.3544C16.937 14.2592 17.0524 14.1236 17.123 13.9641C17.1935 13.8046 17.2162 13.628 17.1883 13.4559C17.1603 13.2837 17.0829 13.1234 16.9656 12.9943C15.7685 11.7604 14.4995 10.4491 14.4995 6.39995C14.4995 4.96776 13.9306 3.59423 12.9179 2.58152C11.9052 1.56881 10.5316 0.999878 9.09945 0.999878C7.66726 0.999878 6.29373 1.56881 5.28102 2.58152C4.26831 3.59423 3.69938 4.96776 3.69938 6.39995C3.69938 10.4491 2.42946 11.7604 1.23515 12.9934Z" stroke="#060415" stroke-width="1.5" stroke-linecap="round" stroke-linejoin="round"/>
</svg>
