<svg width="11" height="15" viewBox="0 0 11 15" fill="none" xmlns="http://www.w3.org/2000/svg">
<path d="M10.9031 0.573733C10.8251 0.40128 10.702 0.255758 10.5483 0.154166C10.3946 0.0525735 10.2166 -0.000893155 10.0351 1.12874e-05H0.963599C0.782275 1.39959e-05 0.604631 0.0538577 0.451082 0.155355C0.297534 0.256852 0.174313 0.401883 0.0955797 0.57378C0.0168469 0.745677 -0.0142024 0.937465 0.00600026 1.1271C0.0262029 1.31674 0.0968376 1.49653 0.209787 1.64581L3.83129 6.4327V14.3976C3.83129 14.5034 3.85773 14.6073 3.90796 14.6988C3.95819 14.7904 4.03045 14.8664 4.11745 14.9193C4.20446 14.9722 4.30316 15 4.40363 15C4.5041 15 4.6028 14.9722 4.68981 14.9193L6.88117 13.5878C6.96818 13.5349 7.04043 13.4589 7.09067 13.3673C7.1409 13.2758 7.16734 13.1719 7.16734 13.0662V6.4327L10.789 1.64581C10.9027 1.49694 10.9738 1.31707 10.9941 1.12723C11.0143 0.937384 10.9827 0.745407 10.9031 0.573733ZM9.6595 1.20468L9.05808 1.99961H1.94059L1.3392 1.20468H9.6595ZM6.14728 5.84704C6.06661 5.95367 6.02269 6.08593 6.02269 6.22222V12.7184L4.97598 13.3544V6.22222C4.97599 6.08592 4.93206 5.95364 4.85139 5.84701L2.85201 3.20427H8.14666L6.14728 5.84704Z" fill="#302294"/>
</svg>
