<svg width="45" height="40" viewBox="0 0 45 40" fill="none" xmlns="http://www.w3.org/2000/svg">
<path d="M40.3012 16.7358H38.8125V16.6666H22.1786V23.3333H32.6237C31.0999 27.2141 27.0052 30 22.1786 30C16.0545 30 11.0893 25.5225 11.0893 20C11.0893 14.4775 16.0545 9.99998 22.1786 9.99998C25.0054 9.99998 27.5772 10.9616 29.5354 12.5325L34.763 7.81831C31.4621 5.04415 27.0468 3.33331 22.1786 3.33331C11.9718 3.33331 3.69641 10.7958 3.69641 20C3.69641 29.2041 11.9718 36.6666 22.1786 36.6666C32.3853 36.6666 40.6607 29.2041 40.6607 20C40.6607 18.8825 40.5332 17.7916 40.3012 16.7358Z" fill="#FFC107"/>
<path d="M5.82739 12.2425L11.8997 16.2583C13.5428 12.59 17.522 9.99998 22.1785 9.99998C25.0054 9.99998 27.5772 10.9616 29.5354 12.5325L34.763 7.81831C31.4621 5.04415 27.0467 3.33331 22.1785 3.33331C15.0796 3.33331 8.92315 6.94748 5.82739 12.2425Z" fill="#FF3D00"/>
<path d="M22.1786 36.6667C26.9525 36.6667 31.2903 35.0192 34.5699 32.34L28.8497 27.975C26.9941 29.2425 24.6875 30 22.1786 30C17.3714 30 13.2896 27.2359 11.7519 23.3784L5.72485 27.5659C8.78365 32.9634 14.9955 36.6667 22.1786 36.6667Z" fill="#4CAF50"/>
<path d="M40.3013 16.7359H38.8125V16.6667H22.1786V23.3334H32.6238C31.8919 25.1975 30.5621 26.805 28.8469 27.9759L28.8497 27.9742L34.5699 32.3392C34.1652 32.6709 40.6607 28.3334 40.6607 20C40.6607 18.8825 40.5332 17.7917 40.3013 16.7359Z" fill="#1976D2"/>
</svg>
