<svg width="19" height="20" viewBox="0 0 19 20" fill="none" xmlns="http://www.w3.org/2000/svg">
<path d="M11.6491 18.4438V11.3093C11.6491 11.0728 11.5552 10.8459 11.3879 10.6787C11.2207 10.5114 10.9938 10.4175 10.7573 10.4175H7.19008C6.95355 10.4175 6.72672 10.5114 6.55947 10.6787C6.39222 10.8459 6.29826 11.0728 6.29826 11.3093V18.4438" stroke="black" stroke-linecap="round" stroke-linejoin="round"/>
<path d="M0.947388 8.63403C0.947326 8.37457 1.00387 8.11823 1.11308 7.88287C1.22228 7.64752 1.38152 7.43882 1.57968 7.27134L7.82236 1.92136C8.1443 1.64928 8.55219 1.5 8.97369 1.5C9.3952 1.5 9.80309 1.64928 10.125 1.92136L16.3677 7.27134C16.5659 7.43882 16.7251 7.64752 16.8343 7.88287C16.9435 8.11823 17.0001 8.37457 17 8.63403V16.6603C17 17.1334 16.8121 17.5871 16.4776 17.9215C16.1431 18.256 15.6894 18.444 15.2164 18.444H2.73101C2.25796 18.444 1.80429 18.256 1.4698 17.9215C1.1353 17.5871 0.947388 17.1334 0.947388 16.6603V8.63403Z" stroke="black" stroke-linecap="round" stroke-linejoin="round"/>
</svg>
