<svg width="80" height="102" viewBox="0 0 80 102" fill="none" xmlns="http://www.w3.org/2000/svg">
<path d="M40.0454 69.9963C43.8277 69.9963 46.8938 66.9301 46.8938 63.1479C46.8938 59.3656 43.8277 56.2994 40.0454 56.2994C36.2632 56.2994 33.197 59.3656 33.197 63.1479C33.197 66.9301 36.2632 69.9963 40.0454 69.9963Z" fill="white"/>
<path d="M40.0454 13.6968C43.8277 13.6968 46.8938 10.6307 46.8938 6.84841C46.8938 3.06614 43.8277 0 40.0454 0C36.2632 0 33.197 3.06614 33.197 6.84841C33.197 10.6307 36.2632 13.6968 40.0454 13.6968Z" fill="white"/>
<path d="M5 44.6938L14.8412 37.76C19.2201 42.0535 24.9608 45.3692 31.5067 46.9853L14.895 58.6875L5 44.6938Z" fill="white"/>
<path d="M47.6824 47.1931C54.336 45.7607 60.1992 42.5527 64.7413 38.2462L74.8998 45.4008L64.6467 59.1421L47.6824 47.1931Z" fill="white"/>
<path d="M75 25.0856L65.2386 31.9618C60.6779 27.5422 55.0708 24.3545 48.5656 22.7422L65.105 11.0919L75 25.0856Z" fill="white"/>
<path d="M32.4976 22.5214C25.8421 23.9686 20.1459 26.9893 15.4146 31.4516L5.20782 24.2618L15.4591 10.5186L32.4976 22.5195V22.5214Z" fill="white"/>
<path d="M8.65031 100.216C6.78365 100.216 5.34365 99.7563 4.33031 98.8363C3.33031 97.9296 2.83031 96.6563 2.83031 95.0163C2.83031 94.4029 2.91031 93.7429 3.07031 93.0363C3.24365 92.3163 3.47698 91.6096 3.77031 90.9163L5.29031 91.3763C5.03698 91.9229 4.83031 92.4829 4.67031 93.0563C4.51031 93.6296 4.43031 94.1496 4.43031 94.6163C4.43031 95.6163 4.74365 96.3963 5.37031 96.9563C5.99698 97.5163 6.86365 97.7963 7.97031 97.7963H9.35031C10.6436 97.7963 11.5903 97.5296 12.1903 96.9963C12.8036 96.4496 13.1103 95.5896 13.1103 94.4163C13.1103 94.0429 13.077 93.6163 13.0103 93.1363C12.9436 92.6429 12.8436 92.0763 12.7103 91.4363L12.3303 89.6763L14.0703 89.3363L14.3903 91.0763C14.5236 91.7829 14.6236 92.4096 14.6903 92.9563C14.757 93.5029 14.7903 93.9896 14.7903 94.4163C14.7903 96.4029 14.297 97.8629 13.3103 98.7963C12.3236 99.7429 10.7703 100.216 8.65031 100.216ZM8.73031 89.3363C8.42365 89.3363 8.17698 89.2429 7.99031 89.0563C7.81698 88.8696 7.73031 88.5829 7.73031 88.1963C7.73031 87.7963 7.81698 87.5096 7.99031 87.3363C8.17698 87.1496 8.42365 87.0563 8.73031 87.0563H9.03031C9.33698 87.0563 9.58365 87.1496 9.77031 87.3363C9.95698 87.5096 10.0503 87.7963 10.0503 88.1963C10.0503 88.5829 9.95698 88.8696 9.77031 89.0563C9.58365 89.2429 9.33698 89.3363 9.03031 89.3363H8.73031ZM16.1478 99.5363H17.3078C18.7078 99.5363 19.8011 99.3096 20.5878 98.8563C21.3745 98.4163 21.8945 97.7963 22.1478 96.9963H19.7478C18.6678 96.9963 17.8278 96.7029 17.2278 96.1163C16.6411 95.5296 16.3478 94.6963 16.3478 93.6163C16.3478 92.9763 16.4411 92.3763 16.6278 91.8163C16.8278 91.2563 17.0945 90.7763 17.4278 90.3763C17.7745 89.9629 18.1811 89.6363 18.6478 89.3963C19.1145 89.1563 19.6278 89.0363 20.1878 89.0363C21.3611 89.0363 22.2745 89.5363 22.9278 90.5363C23.5945 91.5363 23.9411 92.9363 23.9678 94.7363H24.9078V96.5163L24.4278 96.9963H23.7478C23.4145 98.5296 22.7145 99.7096 21.6478 100.536C20.5945 101.376 19.1745 101.796 17.3878 101.796H16.1478V99.5363ZM18.0078 93.3363C18.0078 93.8296 18.1611 94.1896 18.4678 94.4163C18.7745 94.6296 19.2278 94.7363 19.8278 94.7363H22.3078V94.3563C22.3078 93.4363 22.0945 92.7029 21.6678 92.1563C21.2411 91.5963 20.6878 91.3163 20.0078 91.3163C19.3945 91.3163 18.9078 91.5029 18.5478 91.8763C18.1878 92.2496 18.0078 92.7363 18.0078 93.3363ZM24.4223 95.2163L24.9023 94.7363H27.0423V96.5163L26.5623 96.9963H24.4223V95.2163ZM26.5708 95.2163L27.0508 94.7363H29.1908V96.5163L28.7108 96.9963H26.5708V95.2163ZM28.7192 95.2163L29.1992 94.7363H31.3392V96.5163L30.8592 96.9963H28.7192V95.2163ZM30.8677 95.2163L31.3477 94.7363H33.4877V96.5163L33.0077 96.9963H30.8677V95.2163ZM33.0161 95.2163L33.4961 94.7363H35.6361V96.5163L35.1561 96.9963H33.0161V95.2163ZM35.1645 95.2163L35.6445 94.7363H37.7845V96.5163L37.3045 96.9963H35.1645V95.2163ZM37.313 95.2163L37.793 94.7363H39.933V96.5163L39.453 96.9963H37.313V95.2163ZM39.4614 95.2163L39.9414 94.7363H42.0814V96.5163L41.6014 96.9963H39.4614V95.2163ZM41.6098 95.2163L42.0898 94.7363H44.2298V96.5163L43.7498 96.9963H41.6098V95.2163ZM43.7583 95.2163L44.2383 94.7363H46.3783V96.5163L45.8983 96.9963H43.7583V95.2163ZM45.9067 95.2163L46.3867 94.7363H48.5267V96.5163L48.0467 96.9963H45.9067V95.2163ZM48.0552 95.2163L48.5352 94.7363H50.6752V96.5163L50.1952 96.9963H48.0552V95.2163ZM50.2036 95.2163L50.6836 94.7363H52.8236V96.5163L52.3436 96.9963H50.2036V95.2163ZM52.352 95.2163L52.832 94.7363H54.972V96.5163L54.492 96.9963H52.352V95.2163ZM54.5005 95.2163L54.9805 94.7363H55.6405C56.7471 94.7363 57.3005 94.2096 57.3005 93.1563V90.1163H59.0405V93.1563C59.0405 94.2096 59.5605 94.7363 60.6005 94.7363H61.3605V96.5163L60.8605 96.9963C59.8738 96.9963 59.1071 96.8163 58.5605 96.4563C58.0271 96.0829 57.6738 95.5029 57.5005 94.7163H57.3805C57.2205 95.5429 56.9205 96.1296 56.4805 96.4763C56.0538 96.8229 55.3938 96.9963 54.5005 96.9963V95.2163ZM58.0005 88.0763C57.6938 88.0763 57.4471 87.9829 57.2605 87.7963C57.0871 87.6096 57.0005 87.3229 57.0005 86.9363C57.0005 86.5363 57.0871 86.2496 57.2605 86.0763C57.4471 85.8896 57.6938 85.7963 58.0005 85.7963H58.3005C58.6071 85.7963 58.8538 85.8896 59.0405 86.0763C59.2271 86.2496 59.3205 86.5363 59.3205 86.9363C59.3205 87.3229 59.2271 87.6096 59.0405 87.7963C58.8538 87.9829 58.6071 88.0763 58.3005 88.0763H58.0005ZM60.8872 95.2163L61.3672 94.7363H62.0272C63.1339 94.7363 63.6872 94.2096 63.6872 93.1563V90.1163H65.4272V93.1563C65.4272 94.2096 65.9472 94.7363 66.9872 94.7363H67.7472V96.5163L67.2472 96.9963C66.2605 96.9963 65.4939 96.8163 64.9472 96.4563C64.4139 96.0829 64.0605 95.5029 63.8872 94.7163H63.7672C63.6072 95.5429 63.3072 96.1296 62.8672 96.4763C62.4405 96.8229 61.7805 96.9963 60.8872 96.9963V95.2163ZM64.3872 101.136C64.0805 101.136 63.8339 101.043 63.6472 100.856C63.4739 100.67 63.3872 100.383 63.3872 99.9963C63.3872 99.5963 63.4739 99.3029 63.6472 99.1163C63.8339 98.9429 64.0805 98.8563 64.3872 98.8563H64.6872C64.9939 98.8563 65.2405 98.9429 65.4272 99.1163C65.6139 99.3029 65.7072 99.5963 65.7072 99.9963C65.7072 100.383 65.6139 100.67 65.4272 100.856C65.2405 101.043 64.9939 101.136 64.6872 101.136H64.3872ZM67.2739 95.2163L67.7539 94.7363H68.4539C69.0406 94.7363 69.4472 94.6096 69.6739 94.3563C69.9139 94.1029 70.0339 93.7029 70.0339 93.1563V82.1963H71.9139V93.1563C71.9139 94.4763 71.6472 95.4496 71.1139 96.0763C70.5806 96.6896 69.6939 96.9963 68.4539 96.9963H67.2739V95.2163ZM74.6808 82.1963H76.5408V96.9963H74.6808V82.1963Z" fill="white"/>
</svg>
