<svg width="24" height="50" viewBox="0 0 24 50" fill="none" xmlns="http://www.w3.org/2000/svg">
<path d="M22.0586 14.8438C21.3262 19.7948 17.1075 23.6328 11.9512 23.6328C6.79485 23.6328 2.57617 19.7948 1.84375 14.8438L11.9512 11.9141L22.0586 14.8438Z" fill="#FF4B00"/>
<path d="M22.2051 0V5.85938L11.9512 8.78906L1.69727 5.85938V0H22.2051Z" fill="#FF4B00"/>
<path d="M22.2051 5.85938V13.3789C22.2051 13.8767 22.117 14.3749 22.0586 14.8438H1.84375C1.78539 14.3749 1.69727 13.8767 1.69727 13.3789V5.85938H22.2051Z" fill="#FF7816"/>
<path d="M11.9512 23.6328V11.9141L22.0586 14.8438C21.3262 19.7948 17.1075 23.6328 11.9512 23.6328Z" fill="#D03B00"/>
<path d="M11.9512 20.7031C9.5193 20.7031 7.55664 22.6662 7.55664 25.0977C7.55664 27.5291 9.5193 29.4922 11.9512 29.4922C14.383 29.4922 16.3457 27.5291 16.3457 25.0977C16.3457 22.6662 14.383 20.7031 11.9512 20.7031ZM11.9512 26.5625C11.1436 26.5625 10.4863 25.9052 10.4863 25.0977C10.4863 24.2901 11.1436 23.6328 11.9512 23.6328C12.7587 23.6328 13.416 24.2901 13.416 25.0977C13.416 25.9052 12.7587 26.5625 11.9512 26.5625Z" fill="#FDBF00"/>
<path d="M11.9512 20.7031V23.6328C12.7587 23.6328 13.416 24.2901 13.416 25.0977C13.416 25.9052 12.7587 26.5625 11.9512 26.5625V29.4922C14.383 29.4922 16.3457 27.5291 16.3457 25.0977C16.3457 22.6662 14.383 20.7031 11.9512 20.7031Z" fill="#FF9F00"/>
<path d="M22.2051 5.85938L11.9512 8.78906V0H22.2051V5.85938Z" fill="#D03B00"/>
<path d="M22.2051 5.85938V13.3789C22.2051 13.8767 22.117 14.3749 22.0586 14.8438H11.9512V5.85938H22.2051Z" fill="#FF4B00"/>
<path d="M11.9512 26.5625C5.47649 26.5625 0.232422 31.8066 0.232422 38.2812C0.232422 44.7559 5.47649 50 11.9512 50C18.4259 50 23.7676 44.7559 23.7676 38.2812C23.7676 31.8066 18.4259 26.5625 11.9512 26.5625Z" fill="#FFD400"/>
<path d="M23.7676 38.2812C23.7676 44.7559 18.4259 50 11.9512 50V26.5625C18.4259 26.5625 23.7676 31.8066 23.7676 38.2812Z" fill="#FDBF00"/>
<path d="M11.9512 32.4219C8.72852 32.4219 6.0918 35.0586 6.0918 38.2812C6.0918 41.5039 8.72852 44.1406 11.9512 44.1406C15.1738 44.1406 17.8105 41.5039 17.8105 38.2812C17.8105 35.0586 15.1738 32.4219 11.9512 32.4219Z" fill="#FDBF00"/>
<path d="M17.8105 38.2812C17.8105 41.5039 15.1738 44.1406 11.9512 44.1406V32.4219C15.1738 32.4219 17.8105 35.0586 17.8105 38.2812Z" fill="#FF9F00"/>
</svg>
