<svg width="70" height="83" viewBox="0 0 70 83" fill="none" xmlns="http://www.w3.org/2000/svg">
<path d="M69.2698 36.064L69.1593 57.629L51.0499 68.0334L51.1604 46.4684L69.2698 36.064Z" fill="white"/>
<path d="M69.274 36.062L69.1591 57.625L51.045 68.0348L51.0833 60.8008C52.2943 61.2797 53.6073 61.5318 54.9841 61.5318C61.4979 61.5318 66.7755 55.785 66.7755 48.715C66.7755 45.1107 65.4242 41.8592 63.2444 39.5277L69.274 36.062Z" fill="#E9EDF4"/>
<path d="M51.0501 68.545C50.9603 68.545 50.8712 68.5219 50.791 68.4763C50.6299 68.3845 50.5313 68.2146 50.5325 68.0309L50.6431 46.4658C50.6438 46.284 50.7417 46.1172 50.9003 46.026L69.0097 35.6214C69.1715 35.529 69.3687 35.5296 69.5292 35.6208C69.6903 35.7126 69.7889 35.8826 69.7876 36.0662L69.677 57.6313C69.6764 57.8131 69.5784 57.9799 69.4198 58.0711L51.3104 68.4757C51.2295 68.5219 51.1398 68.545 51.0501 68.545ZM51.6769 46.7638L51.572 67.1413L68.6432 57.3333L68.7481 36.9558L51.6769 46.7638Z" fill="black"/>
<path d="M55.6097 49.014L64.7681 43.7515L64.7096 55.0833L55.5511 60.3459L55.6097 49.014Z" fill="white"/>
<path d="M55.551 60.8571C55.4613 60.8571 55.3722 60.834 55.292 60.7884C55.1308 60.6966 55.0323 60.5266 55.0335 60.343L55.0923 49.0113C55.0929 48.8295 55.1909 48.6627 55.3495 48.5715L64.5081 43.3089C64.6699 43.2165 64.867 43.2171 65.0275 43.3083C65.1887 43.4001 65.2873 43.5701 65.286 43.7537L65.2272 55.0854C65.2266 55.2672 65.1286 55.434 64.97 55.5252L55.8114 60.7878C55.7305 60.834 55.6408 60.8571 55.551 60.8571ZM56.1261 49.3093L56.0736 59.4534L64.1934 54.7874L64.2459 44.6433L56.1261 49.3093Z" fill="black"/>
<path d="M51.1604 52.7506L51.0499 68.0332L25.808 53.6254L25.9185 38.3428L51.1604 52.7506Z" fill="white"/>
<path d="M51.0501 68.5449C50.961 68.5449 50.8712 68.5224 50.791 68.4761L25.5487 54.0684C25.3876 53.9766 25.289 53.806 25.2903 53.6217L25.4009 38.3388C25.4021 38.157 25.5013 37.9889 25.6612 37.8983C25.8205 37.8077 26.017 37.8065 26.1775 37.8996L51.4197 52.308C51.5809 52.3998 51.6794 52.5703 51.6782 52.7546L51.5676 68.037C51.5663 68.2188 51.4671 68.3868 51.3072 68.4774C51.2276 68.5224 51.1385 68.5449 51.0501 68.5449ZM26.3279 53.3312L50.5389 67.1505L50.6406 53.0451L26.4296 39.2252L26.3279 53.3312Z" fill="black"/>
<path d="M69.2698 36.0641L51.1603 46.4685L25.9185 32.0607L44.0279 21.6562L69.2698 36.0641Z" fill="white"/>
<path d="M51.1606 46.98C51.0715 46.98 50.9818 46.9575 50.9016 46.9112L25.6593 32.5035C25.4995 32.4123 25.4009 32.2436 25.4009 32.0612C25.4003 31.8788 25.4988 31.7101 25.6581 31.6183L43.7675 21.2137C43.928 21.1212 44.1251 21.1194 44.2869 21.2131L69.5292 35.6208C69.689 35.712 69.7876 35.8807 69.7876 36.0631C69.7882 36.2455 69.6897 36.4142 69.5304 36.506L51.421 46.9106C51.3401 46.9568 51.2504 46.98 51.1606 46.98ZM26.9509 32.0593L51.16 45.8767L68.2376 36.065L44.0285 22.2476L26.9509 32.0593Z" fill="black"/>
<path d="M51.1603 14.9668L51.0499 68.0333L25.972 82.4414L26.0825 29.3749L51.1603 14.9668Z" fill="white"/>
<path d="M51.1599 14.9653L51.0451 68.0349L25.9709 82.4396L25.9837 75.6972C27.2074 76.0879 28.4694 76.2896 29.7569 76.2896C40.5157 76.2896 49.2223 62.225 49.2223 44.8713C49.2223 34.9152 46.3541 26.0431 41.8925 20.2837L51.1599 14.9653Z" fill="#E9EDF4"/>
<path d="M25.9721 82.9531C25.883 82.9531 25.7933 82.9306 25.7137 82.885C25.5532 82.7932 25.454 82.6239 25.4546 82.4402L25.5652 29.3734C25.5652 29.1916 25.6637 29.0235 25.8224 28.9323L50.9003 14.5246C51.0608 14.4321 51.2586 14.4309 51.4191 14.5233C51.5796 14.6151 51.6788 14.7844 51.6782 14.9681L51.5676 68.0343C51.5676 68.2161 51.469 68.3842 51.3104 68.4754L26.2325 82.8838C26.1516 82.93 26.0618 82.9531 25.9721 82.9531ZM26.5996 29.6695L26.4915 81.5512L50.5332 67.7382L50.6412 15.8571L26.5996 29.6695Z" fill="black"/>
<path d="M26.0825 29.3751L25.972 82.4416L0.730103 68.0338L0.840591 14.9673L26.0825 29.3751Z" fill="#EFEEF9"/>
<path d="M25.9837 73.769L25.971 82.4396L0.730957 68.0349L0.845796 14.9653L9.05508 19.6535C5.3712 25.4381 3.06384 33.7432 3.06384 42.9683C3.06384 60.4733 11.3624 74.6638 21.6111 74.6638C23.1155 74.6638 24.5814 74.3613 25.9837 73.769Z" fill="#D1CDEE"/>
<path d="M25.9721 82.9534C25.883 82.9534 25.7933 82.9309 25.713 82.8847L0.470789 68.4763C0.310288 68.3851 0.211712 68.2158 0.212344 68.0322L0.322926 14.9659C0.322926 14.7835 0.422133 14.6148 0.582002 14.5236C0.742503 14.4324 0.939022 14.4318 1.09952 14.5243L26.3418 28.932C26.5023 29.0232 26.6008 29.1925 26.6002 29.3762L26.4896 82.443C26.4896 82.6255 26.3904 82.7941 26.2306 82.8853C26.1503 82.9309 26.0612 82.9534 25.9721 82.9534ZM1.24802 67.7385L25.4565 81.5566L25.5645 29.6698L1.35607 15.8524L1.24802 67.7385Z" fill="black"/>
<path d="M51.1604 14.9669L26.0825 29.3749L0.840637 14.9671L25.9185 0.559082L51.1604 14.9669Z" fill="white"/>
<path d="M26.0827 29.8864C25.9936 29.8864 25.9039 29.8639 25.8236 29.8177L0.581384 15.41C0.421515 15.3188 0.32294 15.1501 0.32294 14.9677C0.322308 14.7853 0.420883 14.6166 0.580121 14.5248L25.6581 0.117C25.8186 0.0239176 26.0157 0.0232929 26.1775 0.116375L51.4197 14.5241C51.5796 14.6153 51.6782 14.784 51.6782 14.9664C51.6788 15.1488 51.5802 15.3175 51.421 15.4093L26.343 29.8171C26.2622 29.8633 26.1724 29.8864 26.0827 29.8864ZM1.87297 14.9658L26.0821 28.7832L50.1281 14.9683L25.919 1.1509L1.87297 14.9658Z" fill="black"/>
<path d="M9.74255 14.9548L25.9258 5.65674L42.2585 14.9788L26.0752 24.2769L9.74255 14.9548Z" fill="white"/>
<path d="M26.0751 24.7888C25.986 24.7888 25.8963 24.7663 25.816 24.7201L9.48348 15.3981C9.32361 15.3069 9.22504 15.1382 9.22504 14.9558C9.22441 14.7734 9.32298 14.6047 9.48222 14.5129L25.6656 5.21466C25.8261 5.12157 26.0233 5.12095 26.1851 5.21403L42.5176 14.536C42.6775 14.6272 42.776 14.7959 42.776 14.9783C42.7767 15.1607 42.6781 15.3294 42.5189 15.4212L26.3354 24.7194C26.2546 24.7657 26.1648 24.7888 26.0751 24.7888ZM10.7751 14.9539L26.0745 23.6855L41.226 14.9802L25.9266 6.24856L10.7751 14.9539Z" fill="black"/>
<path d="M25.9199 5.65186V9.43263L38.9605 16.8807L42.2622 14.9777L25.9199 5.65186Z" fill="#EFEEF9"/>
<path d="M38.9606 17.3926C38.8715 17.3926 38.7818 17.3701 38.7016 17.3239L25.6605 9.87544C25.5007 9.78423 25.4021 9.61556 25.4021 9.43252V5.65176C25.4021 5.46872 25.5007 5.30004 25.6605 5.20884C25.821 5.11638 26.0182 5.117 26.1787 5.20821L42.5214 14.5345C42.6806 14.6251 42.7798 14.7938 42.7798 14.9762C42.7804 15.1586 42.6825 15.3279 42.5233 15.4198L39.2216 17.3233C39.1407 17.3695 39.051 17.3926 38.9606 17.3926ZM26.4371 9.13703L38.9594 16.2894L41.231 14.98L26.4371 6.53822V9.13703Z" fill="black"/>
<path d="M9.74347 14.9526L13.0449 16.8303L25.9199 9.43263V5.65186L9.74347 14.9526Z" fill="white"/>
<path d="M13.0448 17.3422C12.9557 17.3422 12.8666 17.3197 12.7864 17.2741L9.48473 15.3962C9.32486 15.305 9.22565 15.1363 9.22565 14.9539C9.22502 14.7708 9.32296 14.6022 9.48283 14.5103L25.6593 5.20962C25.8185 5.11653 26.017 5.11653 26.1775 5.20837C26.3386 5.29958 26.4372 5.46887 26.4372 5.65191V9.43267C26.4372 9.61509 26.3392 9.78376 26.18 9.87497L13.3052 17.2728C13.2243 17.319 13.1345 17.3422 13.0448 17.3422ZM10.7769 14.9501L13.0435 16.2395L25.4021 9.13844V6.5415L10.7769 14.9501Z" fill="black"/>
<path d="M44.7056 56.9762L44.6646 71.7086L32.4202 78.7435L32.4637 63.0252C32.467 61.7255 33.1677 60.5251 34.3044 59.872L42.0159 55.4415C43.2111 54.7549 44.7091 55.6096 44.7056 56.9762Z" fill="#EFEEF9"/>
<path d="M44.7096 56.9823L44.6586 71.7147L32.4209 78.747L32.434 74.6889C32.931 74.8024 33.4408 74.8528 33.9636 74.8528C38.8332 74.8528 42.772 70.0133 42.772 64.0271C42.772 61.0781 41.8159 58.4064 40.2608 56.453L42.0201 55.4447C43.2055 54.7516 44.7096 55.6086 44.7096 56.9823Z" fill="#D1CDEE"/>
<path d="M32.4199 79.2551C32.3308 79.2551 32.2411 79.2326 32.1609 79.1863C32.0004 79.0951 31.9018 78.9252 31.9024 78.7422L31.946 63.0238C31.9492 61.5482 32.7536 60.1707 34.0445 59.4298L41.7555 54.9993C42.4784 54.582 43.3428 54.5826 44.0683 54.995C44.7937 55.4085 45.2252 56.1494 45.2234 56.9772L45.1823 71.7098C45.1816 71.8916 45.0837 72.0596 44.9251 72.1508L32.6803 79.1857C32.5994 79.2319 32.5097 79.2551 32.4199 79.2551ZM42.9157 55.7115C42.6958 55.7115 42.4759 55.769 42.2762 55.8839L34.5646 60.3144C33.5902 60.8741 32.9836 61.913 32.981 63.0263L32.94 77.8526L44.1479 71.4137L44.1883 56.9747C44.1889 56.518 43.9507 56.1101 43.5507 55.882C43.3517 55.7684 43.1337 55.7115 42.9157 55.7115Z" fill="black"/>
<path d="M38.532 29.6872C43.0658 27.0993 46.7518 29.1759 46.7666 34.3264C46.7813 39.467 43.1192 45.7378 38.5854 48.3256C34.0603 50.9085 30.3745 48.8318 30.3598 43.6912C30.345 38.5407 34.0069 32.27 38.532 29.6872Z" fill="white"/>
<path d="M46.7726 34.331C46.7853 39.4696 43.1214 45.7362 38.5829 48.3305C34.9447 50.411 31.8389 49.471 30.7739 46.3377C35.2363 47.4658 40.2183 45.4479 42.8299 41.0989C45.3399 36.9505 44.9469 31.9372 42.1706 28.5783C44.8837 28.5533 46.7599 30.6588 46.7726 34.331Z" fill="#E9EDF4"/>
<path d="M34.9083 49.952C34.037 49.952 33.2269 49.749 32.509 49.3405C30.7966 48.3665 29.85 46.3606 29.8425 43.6924C29.8267 38.388 33.6092 31.906 38.2732 29.2441C40.6403 27.8922 42.8936 27.6885 44.6168 28.6693C46.3292 29.6439 47.2764 31.6523 47.284 34.3249C47.2991 39.6243 43.5128 46.1038 38.8444 48.7682C37.4669 49.5547 36.1273 49.952 34.9083 49.952ZM38.7913 30.1299C34.4129 32.6294 30.863 38.7122 30.8775 43.6899C30.8838 45.977 31.6465 47.6687 33.0253 48.4534C34.4142 49.2436 36.2966 49.0406 38.3263 47.8824C42.7091 45.381 46.2628 39.3007 46.2489 34.3274C46.2426 32.0359 45.4793 30.3411 44.0999 29.5564C42.711 28.7668 40.826 28.9698 38.7913 30.1299Z" fill="black"/>
<path d="M39.1832 33.8767C39.55 33.6673 39.8593 33.8285 39.8605 34.2451L39.8715 38.0955C39.8719 38.2074 39.9597 38.2873 40.0698 38.3132C40.4446 38.4015 40.6897 38.7612 40.6913 39.328C40.694 40.2603 40.0268 41.3896 39.206 41.8581C38.7122 42.14 38.273 42.1182 38.0026 41.8443C37.9229 41.7634 37.8078 41.7289 37.7089 41.7854L35.789 42.8813C35.4223 43.0905 35.1245 42.9227 35.1233 42.5061C35.1221 42.0895 35.418 41.5762 35.7846 41.367L37.8107 40.2105C37.8542 40.1857 37.8865 40.1473 37.9043 40.101C38.0401 39.7493 38.238 39.4057 38.4825 39.1151C38.5152 39.0763 38.5333 39.0287 38.5332 38.9782L38.5218 35.0092C38.5206 34.5926 38.8223 34.0826 39.1832 33.8767Z" fill="black"/>
<path d="M5.19647 41.049L5.2861 24.5645L21.6163 33.8853L21.5266 50.3698L5.19647 41.049Z" fill="white"/>
<path d="M21.6111 33.8818L21.5221 50.366L5.19257 41.0526L5.20533 38.5951C6.98984 40.4351 9.37376 41.5568 11.9871 41.5568C16.3976 41.5568 20.1581 38.3557 21.5856 33.8691L21.6111 33.8818Z" fill="#E9EDF4"/>
<path d="M5.19641 63.5236L5.28604 47.0391L21.6162 56.3599L21.5266 72.8444L5.19641 63.5236Z" fill="white"/>
<path d="M21.5987 59.1626L21.5221 72.9498L5.19257 63.624L5.20533 61.0782C7.0664 63.4601 9.78177 64.9472 12.79 64.9472C16.5504 64.9472 19.8394 62.6283 21.5987 59.1626Z" fill="#E9EDF4"/>
<path d="M13.3513 46.224H13.3481C13.0625 46.2222 12.8319 45.9916 12.8338 45.7093L12.9355 29.2287C12.9374 28.947 13.1687 28.7202 13.453 28.7202H13.4562C13.7418 28.7221 13.9724 28.9526 13.9705 29.235L13.8688 45.7155C13.8669 45.9973 13.6356 46.224 13.3513 46.224Z" fill="black"/>
<path d="M21.5703 42.6351C21.4825 42.6351 21.394 42.6132 21.3125 42.567L4.98249 33.2531C4.73542 33.112 4.65012 32.799 4.79356 32.5541C4.93573 32.3098 5.25168 32.2242 5.50065 32.3673L21.8294 41.6799C22.0771 41.8211 22.1624 42.1341 22.0196 42.3789C21.9236 42.5432 21.7498 42.6351 21.5703 42.6351Z" fill="black"/>
<path d="M13.3513 68.6987H13.3481C13.0625 68.6968 12.8319 68.4663 12.8338 68.1839L12.9355 51.7033C12.9374 51.4216 13.1687 51.1948 13.453 51.1948H13.4562C13.7418 51.1967 13.9724 51.4272 13.9705 51.7096L13.8688 68.1901C13.8669 68.4719 13.6356 68.6987 13.3513 68.6987Z" fill="black"/>
<path d="M21.5703 65.1098C21.4825 65.1098 21.394 65.088 21.3125 65.0417L4.98249 55.7279C4.73542 55.5867 4.65012 55.2737 4.79356 55.0288C4.93573 54.7839 5.25168 54.699 5.50065 54.842L21.8294 64.1546C22.0771 64.2958 22.1624 64.6088 22.0196 64.8537C21.9236 65.018 21.7498 65.1098 21.5703 65.1098Z" fill="black"/>
<path d="M60.1342 58.2247C60.1335 58.2247 60.1329 58.2247 60.1316 58.2247C59.846 58.2234 59.6154 57.9935 59.6166 57.7105L59.6672 46.3807C59.6685 46.099 59.8997 45.8716 60.1847 45.8716H60.1872C60.4729 45.8728 60.7035 46.1027 60.7022 46.3857L60.6517 57.7155C60.6504 57.9973 60.4191 58.2247 60.1342 58.2247Z" fill="black"/>
<path d="M42.0652 66.1034C42.4053 65.524 42.4059 64.8965 42.0665 64.7018C41.7272 64.5071 41.1763 64.8189 40.8363 65.3982C40.4962 65.9776 40.4956 66.6051 40.8349 66.7998C41.1743 66.9945 41.7251 66.6827 42.0652 66.1034Z" fill="black"/>
<path d="M21.5267 50.8813C21.4376 50.8813 21.3479 50.8588 21.2676 50.8126L4.93698 41.4919C4.77648 41.4001 4.67728 41.2302 4.67854 41.0465L4.76826 24.5622C4.7689 24.3798 4.86811 24.2117 5.02798 24.1205C5.18848 24.0306 5.38436 24.0293 5.54487 24.1218L21.8755 33.4425C22.036 33.5343 22.1352 33.7042 22.134 33.8879L22.0442 50.3722C22.0436 50.5546 21.9444 50.7227 21.7845 50.8139C21.7043 50.8588 21.6158 50.8813 21.5267 50.8813ZM5.71548 40.7541L21.0136 49.4864L21.097 34.1803L5.79889 25.448L5.71548 40.7541Z" fill="black"/>
<path d="M21.5267 73.3561C21.4376 73.3561 21.3479 73.3336 21.2676 73.2874L4.93698 63.9667C4.77648 63.8748 4.67728 63.7049 4.67854 63.5212L4.76826 47.0363C4.7689 46.8539 4.86811 46.6858 5.02798 46.5946C5.18848 46.5047 5.38436 46.5034 5.54487 46.5959L21.8755 55.9172C22.036 56.0091 22.1352 56.179 22.134 56.3626L22.0442 72.8469C22.0436 73.0294 21.9444 73.1974 21.7845 73.2886C21.7043 73.3336 21.6158 73.3561 21.5267 73.3561ZM5.71548 63.2289L21.0136 71.9611L21.097 56.6544L5.79889 47.9228L5.71548 63.2289Z" fill="black"/>
</svg>
