<svg width="18" height="21" viewBox="0 0 18 21" fill="none" xmlns="http://www.w3.org/2000/svg">
<path d="M7.54053 19.1006C7.69852 19.3742 7.92575 19.6014 8.19938 19.7594C8.473 19.9174 8.78339 20.0005 9.09935 20.0005C9.4153 20.0005 9.72569 19.9174 9.99932 19.7594C10.273 19.6014 10.5002 19.3742 10.6582 19.1006" stroke="#060415" stroke-width="1.5" stroke-linecap="round" stroke-linejoin="round"/>
<path d="M1.23515 13.9936C1.11757 14.1224 1.03998 14.2827 1.01181 14.4548C0.983643 14.627 1.00611 14.8036 1.07648 14.9632C1.14685 15.1229 1.26209 15.2586 1.40818 15.3539C1.55427 15.4492 1.72491 15.5001 1.89935 15.5002H16.2996C16.474 15.5002 16.6447 15.4496 16.7908 15.3545C16.937 15.2593 17.0524 15.1238 17.123 14.9642C17.1935 14.8047 17.2162 14.6281 17.1883 14.456C17.1603 14.2838 17.0829 14.1235 16.9656 13.9945C15.7685 12.7605 14.4995 11.4492 14.4995 7.40007C14.4995 5.96789 13.9306 4.59436 12.9179 3.58164C11.9052 2.56893 10.5316 2 9.09945 2C7.66726 2 6.29373 2.56893 5.28102 3.58164C4.26831 4.59436 3.69938 5.96789 3.69938 7.40007C3.69938 11.4492 2.42946 12.7605 1.23515 13.9936Z" stroke="#060415" stroke-width="1.5" stroke-linecap="round" stroke-linejoin="round"/>
<circle cx="14" cy="4" r="4" fill="#FF3B30"/>
</svg>
