<svg width="107" height="30" viewBox="0 0 107 30" fill="none" xmlns="http://www.w3.org/2000/svg">
<path d="M8.65031 24.22C6.78365 24.22 5.34365 23.76 4.33031 22.84C3.33031 21.9333 2.83031 20.66 2.83031 19.02C2.83031 18.4067 2.91031 17.7467 3.07031 17.04C3.24365 16.32 3.47698 15.6133 3.77031 14.92L5.29031 15.38C5.03698 15.9267 4.83031 16.4867 4.67031 17.06C4.51031 17.6333 4.43031 18.1533 4.43031 18.62C4.43031 19.62 4.74365 20.4 5.37031 20.96C5.99698 21.52 6.86365 21.8 7.97031 21.8H9.35031C10.6436 21.8 11.5903 21.5333 12.1903 21C12.8036 20.4533 13.1103 19.5933 13.1103 18.42C13.1103 18.0467 13.077 17.62 13.0103 17.14C12.9436 16.6467 12.8436 16.08 12.7103 15.44L12.3303 13.68L14.0703 13.34L14.3903 15.08C14.5236 15.7867 14.6236 16.4133 14.6903 16.96C14.757 17.5067 14.7903 17.9933 14.7903 18.42C14.7903 20.4067 14.297 21.8667 13.3103 22.8C12.3236 23.7467 10.7703 24.22 8.65031 24.22ZM8.73031 13.34C8.42365 13.34 8.17698 13.2467 7.99031 13.06C7.81698 12.8733 7.73031 12.5867 7.73031 12.2C7.73031 11.8 7.81698 11.5133 7.99031 11.34C8.17698 11.1533 8.42365 11.06 8.73031 11.06H9.03031C9.33698 11.06 9.58365 11.1533 9.77031 11.34C9.95698 11.5133 10.0503 11.8 10.0503 12.2C10.0503 12.5867 9.95698 12.8733 9.77031 13.06C9.58365 13.2467 9.33698 13.34 9.03031 13.34H8.73031ZM16.1478 23.54H17.3078C18.7078 23.54 19.8011 23.3133 20.5878 22.86C21.3745 22.42 21.8945 21.8 22.1478 21H19.7478C18.6678 21 17.8278 20.7067 17.2278 20.12C16.6411 19.5333 16.3478 18.7 16.3478 17.62C16.3478 16.98 16.4411 16.38 16.6278 15.82C16.8278 15.26 17.0945 14.78 17.4278 14.38C17.7745 13.9667 18.1811 13.64 18.6478 13.4C19.1145 13.16 19.6278 13.04 20.1878 13.04C21.3611 13.04 22.2745 13.54 22.9278 14.54C23.5945 15.54 23.9411 16.94 23.9678 18.74H24.9078V20.52L24.4278 21H23.7478C23.4145 22.5333 22.7145 23.7133 21.6478 24.54C20.5945 25.38 19.1745 25.8 17.3878 25.8H16.1478V23.54ZM18.0078 17.34C18.0078 17.8333 18.1611 18.1933 18.4678 18.42C18.7745 18.6333 19.2278 18.74 19.8278 18.74H22.3078V18.36C22.3078 17.44 22.0945 16.7067 21.6678 16.16C21.2411 15.6 20.6878 15.32 20.0078 15.32C19.3945 15.32 18.9078 15.5067 18.5478 15.88C18.1878 16.2533 18.0078 16.74 18.0078 17.34ZM24.4223 19.22L24.9023 18.74H27.0423V20.52L26.5623 21H24.4223V19.22ZM26.5708 19.22L27.0508 18.74H29.1908V20.52L28.7108 21H26.5708V19.22ZM28.7192 19.22L29.1992 18.74H31.3392V20.52L30.8592 21H28.7192V19.22ZM30.8677 19.22L31.3477 18.74H33.4877V20.52L33.0077 21H30.8677V19.22ZM33.0161 19.22L33.4961 18.74H35.6361V20.52L35.1561 21H33.0161V19.22ZM35.1645 19.22L35.6445 18.74H37.7845V20.52L37.3045 21H35.1645V19.22ZM37.313 19.22L37.793 18.74H39.933V20.52L39.453 21H37.313V19.22ZM39.4614 19.22L39.9414 18.74H42.0814V20.52L41.6014 21H39.4614V19.22ZM41.6098 19.22L42.0898 18.74H44.2298V20.52L43.7498 21H41.6098V19.22ZM43.7583 19.22L44.2383 18.74H46.3783V20.52L45.8983 21H43.7583V19.22ZM45.9067 19.22L46.3867 18.74H48.5267V20.52L48.0467 21H45.9067V19.22ZM48.0552 19.22L48.5352 18.74H50.6752V20.52L50.1952 21H48.0552V19.22ZM50.2036 19.22L50.6836 18.74H52.8236V20.52L52.3436 21H50.2036V19.22ZM52.352 19.22L52.832 18.74H54.972V20.52L54.492 21H52.352V19.22ZM54.5005 19.22L54.9805 18.74H55.6405C56.7471 18.74 57.3005 18.2133 57.3005 17.16V14.12H59.0405V17.16C59.0405 18.2133 59.5605 18.74 60.6005 18.74H61.3605V20.52L60.8605 21C59.8738 21 59.1071 20.82 58.5605 20.46C58.0271 20.0867 57.6738 19.5067 57.5005 18.72H57.3805C57.2205 19.5467 56.9205 20.1333 56.4805 20.48C56.0538 20.8267 55.3938 21 54.5005 21V19.22ZM58.0005 12.08C57.6938 12.08 57.4471 11.9867 57.2605 11.8C57.0871 11.6133 57.0005 11.3267 57.0005 10.94C57.0005 10.54 57.0871 10.2533 57.2605 10.08C57.4471 9.89333 57.6938 9.8 58.0005 9.8H58.3005C58.6071 9.8 58.8538 9.89333 59.0405 10.08C59.2271 10.2533 59.3205 10.54 59.3205 10.94C59.3205 11.3267 59.2271 11.6133 59.0405 11.8C58.8538 11.9867 58.6071 12.08 58.3005 12.08H58.0005ZM60.8872 19.22L61.3672 18.74H62.0272C63.1339 18.74 63.6872 18.2133 63.6872 17.16V14.12H65.4272V17.16C65.4272 18.2133 65.9472 18.74 66.9872 18.74H67.7472V20.52L67.2472 21C66.2605 21 65.4939 20.82 64.9472 20.46C64.4139 20.0867 64.0605 19.5067 63.8872 18.72H63.7672C63.6072 19.5467 63.3072 20.1333 62.8672 20.48C62.4405 20.8267 61.7805 21 60.8872 21V19.22ZM64.3872 25.14C64.0805 25.14 63.8339 25.0467 63.6472 24.86C63.4739 24.6733 63.3872 24.3867 63.3872 24C63.3872 23.6 63.4739 23.3067 63.6472 23.12C63.8339 22.9467 64.0805 22.86 64.3872 22.86H64.6872C64.9939 22.86 65.2405 22.9467 65.4272 23.12C65.6139 23.3067 65.7072 23.6 65.7072 24C65.7072 24.3867 65.6139 24.6733 65.4272 24.86C65.2405 25.0467 64.9939 25.14 64.6872 25.14H64.3872ZM67.2739 19.22L67.7539 18.74H68.4539C69.0406 18.74 69.4472 18.6133 69.6739 18.36C69.9139 18.1067 70.0339 17.7067 70.0339 17.16V6.2H71.9139V17.16C71.9139 18.48 71.6472 19.4533 71.1139 20.08C70.5806 20.6933 69.6939 21 68.4539 21H67.2739V19.22ZM74.6808 6.2H76.5408V21H74.6808V6.2Z" fill="#302294"/>
<path d="M92.0117 23.9996C92.9843 23.9996 93.7727 23.2111 93.7727 22.2386C93.7727 21.266 92.9843 20.4775 92.0117 20.4775C91.0391 20.4775 90.2507 21.266 90.2507 22.2386C90.2507 23.2111 91.0391 23.9996 92.0117 23.9996Z" fill="#22176D"/>
<path d="M92.0117 9.52253C92.9843 9.52253 93.7727 8.73409 93.7727 7.76151C93.7727 6.78892 92.9843 6.00049 92.0117 6.00049C91.0391 6.00049 90.2507 6.78892 90.2507 7.76151C90.2507 8.73409 91.0391 9.52253 92.0117 9.52253Z" fill="#22176D"/>
<path d="M83 17.4929L85.5306 15.71C86.6566 16.814 88.1328 17.6666 89.816 18.0822L85.5444 21.0913L83 17.4929Z" fill="#22176D"/>
<path d="M93.9755 18.1356C95.6864 17.7673 97.1941 16.9423 98.3621 15.835L100.974 17.6747L98.3377 21.2082L93.9755 18.1356Z" fill="#22176D"/>
<path d="M101 12.4509L98.4899 14.2191C97.3172 13.0826 95.8754 12.2629 94.2026 11.8483L98.4556 8.85254L101 12.4509Z" fill="#22176D"/>
<path d="M90.0708 11.7915C88.3594 12.1637 86.8947 12.9404 85.678 14.0879L83.0534 12.239L85.6895 8.70508L90.0708 11.791V11.7915Z" fill="#22176D"/>
</svg>
