<svg width="20" height="19" viewBox="0 0 20 19" fill="none" xmlns="http://www.w3.org/2000/svg">
<path d="M11.8 18.2877V14.6877C11.8 14.2103 11.6104 13.7525 11.2728 13.4149C10.9352 13.0773 10.4774 12.8877 10 12.8877C9.52261 12.8877 9.06477 13.0773 8.72721 13.4149C8.38964 13.7525 8.2 14.2103 8.2 14.6877V18.2877" stroke="black" stroke-linecap="round" stroke-linejoin="round"/>
<path d="M15.4 7.4873L18.5023 9.0389C18.6518 9.1136 18.7775 9.22843 18.8654 9.37053C18.9533 9.51264 18.9999 9.67641 19 9.8435V16.4873C19 16.9647 18.8104 17.4225 18.4728 17.7601C18.1352 18.0977 17.6774 18.2873 17.2 18.2873H2.8C2.32261 18.2873 1.86477 18.0977 1.52721 17.7601C1.18964 17.4225 1 16.9647 1 16.4873V9.8435C1.00009 9.67641 1.04669 9.51264 1.1346 9.37053C1.2225 9.22843 1.34823 9.1136 1.4977 9.0389L4.6 7.4873" stroke="black" stroke-linecap="round" stroke-linejoin="round"/>
<path d="M15.4 2.9873V18.2873" stroke="black" stroke-linecap="round" stroke-linejoin="round"/>
<path d="M2.8 3.88754L9.1954 0.689839C9.44524 0.564994 9.72071 0.5 10 0.5C10.2793 0.5 10.5548 0.564994 10.8046 0.689839L17.2 3.88754" stroke="black" stroke-linecap="round" stroke-linejoin="round"/>
<path d="M4.60001 2.9873V18.2873" stroke="black" stroke-linecap="round" stroke-linejoin="round"/>
<path d="M10 8.3876C10.9941 8.3876 11.8 7.58171 11.8 6.5876C11.8 5.59349 10.9941 4.7876 10 4.7876C9.00588 4.7876 8.2 5.59349 8.2 6.5876C8.2 7.58171 9.00588 8.3876 10 8.3876Z" stroke="black" stroke-linecap="round" stroke-linejoin="round"/>
</svg>
