<svg width="12" height="12" viewBox="0 0 12 12" fill="none" xmlns="http://www.w3.org/2000/svg">
<path d="M2.99927 11H9.99927C10.2645 11 10.5188 10.8946 10.7064 10.7071C10.8939 10.5196 10.9993 10.2652 10.9993 10V3" stroke="black" stroke-linecap="round" stroke-linejoin="round"/>
<path d="M1 6.4999L1.648 5.8519C1.87398 5.62595 2.18045 5.49902 2.5 5.49902C2.81955 5.49902 3.12602 5.62595 3.352 5.8519L6.5 8.9999" stroke="black" stroke-linecap="round" stroke-linejoin="round"/>
<path d="M5.9989 5C5.44662 5 4.9989 4.55228 4.9989 4C4.9989 3.44772 5.44662 3 5.9989 3C6.55119 3 6.9989 3.44772 6.9989 4C6.9989 4.55228 6.55119 5 5.9989 5Z" stroke="black" stroke-linecap="round" stroke-linejoin="round"/>
<path d="M2 1H8C8.55228 1 9 1.44772 9 2V8C9 8.55228 8.55228 9 8 9H2C1.44772 9 1 8.55228 1 8V2C1 1.44772 1.44772 1 2 1Z" stroke="black" stroke-linecap="round" stroke-linejoin="round"/>
</svg>
