<svg width="50" height="50" viewBox="0 0 50 50" fill="none" xmlns="http://www.w3.org/2000/svg">
<path d="M47.838 18.231H2.24304V46.811H47.838V18.231Z" fill="#FDBF00"/>
<path d="M45.94 22.8779H43.22V27.5939H45.94V22.8779Z" fill="#FF4B00"/>
<path d="M43.2201 27.5937V22.8779H45.9403L43.2201 27.5937Z" fill="#D03B00"/>
<path d="M45.94 30.2606H43.22V34.9766H45.94V30.2606Z" fill="#FF4B00"/>
<path d="M43.2201 34.9759V30.26H45.9403L43.2201 34.9759Z" fill="#D03B00"/>
<path d="M45.94 37.6407H43.22V42.3567H45.94V37.6407Z" fill="#FF4B00"/>
<path d="M43.2201 42.3572V37.6414H45.9403L43.2201 42.3572Z" fill="#D03B00"/>
<path d="M41.46 22.8779H38.74V27.5939H41.46V22.8779Z" fill="#FF4B00"/>
<path d="M38.7417 27.5937V22.8779H41.462L38.7417 27.5937Z" fill="#D03B00"/>
<path d="M41.46 30.2606H38.74V34.9766H41.46V30.2606Z" fill="#FF4B00"/>
<path d="M38.7417 34.9759V30.26H41.462L38.7417 34.9759Z" fill="#D03B00"/>
<path d="M41.46 37.6407H38.74V42.3567H41.46V37.6407Z" fill="#FF4B00"/>
<path d="M38.7417 42.3572V37.6414H41.462L38.7417 42.3572Z" fill="#D03B00"/>
<path d="M36.985 22.8779H34.265V27.5939H36.985V22.8779Z" fill="#FF4B00"/>
<path d="M34.2632 27.5937V22.8779H36.9835L34.2632 27.5937Z" fill="#D03B00"/>
<path d="M36.985 30.2606H34.265V34.9766H36.985V30.2606Z" fill="#FF4B00"/>
<path d="M34.2632 34.9759V30.26H36.9835L34.2632 34.9759Z" fill="#D03B00"/>
<path d="M36.985 37.6407H34.265V42.3567H36.985V37.6407Z" fill="#FF4B00"/>
<path d="M34.2632 42.3572V37.6414H36.9835L34.2632 42.3572Z" fill="#D03B00"/>
<path d="M40.9257 9.68213H9.15616L2.24304 18.2291H47.8388L40.9257 9.68213Z" fill="#64798A"/>
<path d="M33.4029 8.21826C33.4029 8.21826 31.3969 4.75783 27.786 6.86416C26.7426 7.47283 27.0338 5.97881 25.3787 7.27408V1.2974C25.3787 1.2974 25.5258 3.50896 29.0398 1.84912C30.0407 1.37639 31.5474 0.846115 33.4029 1.59834C33.4029 1.59834 35.0578 4.00549 33.4029 8.21826Z" fill="#FF4B00"/>
<path d="M25.5655 1.29724H24.362V12.4307H25.5655V1.29724Z" fill="#DC8744"/>
<path d="M32.0851 15.6404V46.8075H17.8422V15.6404V14.7376L24.9637 10.2944L32.0851 14.7376V15.6404Z" fill="#FFD400"/>
<path d="M24.898 23.2856C27.5823 23.2856 29.7585 21.1095 29.7585 18.4252C29.7585 15.7408 27.5823 13.5647 24.898 13.5647C22.2136 13.5647 20.0375 15.7408 20.0375 18.4252C20.0375 21.1095 22.2136 23.2856 24.898 23.2856Z" fill="white"/>
<path d="M24.898 23.6104C22.0386 23.6104 19.7124 21.2842 19.7124 18.4249C19.7124 15.5657 22.0386 13.2395 24.898 13.2395C27.7571 13.2395 30.0833 15.5657 30.0833 18.4249C30.0833 21.2842 27.7571 23.6104 24.898 23.6104ZM24.898 13.8891C22.3967 13.8891 20.362 15.9238 20.362 18.4249C20.362 20.9261 22.3967 22.9608 24.898 22.9608C27.399 22.9608 29.4337 20.9261 29.4337 18.4249C29.4337 15.9238 27.399 13.8891 24.898 13.8891Z" fill="#3A556A"/>
<path d="M24.2733 14.3418H24.6127V15.2761H24.463V14.4822H24.2734V14.3418H24.2733Z" fill="#2F4859"/>
<path d="M25.2396 14.7067C25.2664 14.6702 25.2798 14.6331 25.2798 14.5958C25.2798 14.5583 25.2654 14.5264 25.2369 14.5001C25.2086 14.4738 25.1725 14.4606 25.1289 14.4606C25.0521 14.4606 24.9884 14.4999 24.9378 14.5783L24.8107 14.5047C24.8516 14.4433 24.8969 14.3969 24.9464 14.3657C24.9958 14.3346 25.0595 14.3188 25.1376 14.3188C25.2155 14.3188 25.2839 14.3436 25.3427 14.393C25.4014 14.4425 25.4309 14.51 25.4309 14.5955C25.4309 14.6436 25.4184 14.6895 25.3935 14.7332C25.3684 14.7768 25.3226 14.8331 25.2558 14.9016L25.0367 15.1249H25.4604V15.2758H24.8214V15.1421L25.1048 14.8574C25.1678 14.7936 25.2129 14.7432 25.2396 14.7067Z" fill="#2F4859"/>
<path d="M21.1255 18.7633C21.2084 18.7633 21.2693 18.7352 21.3086 18.6792C21.3479 18.623 21.3679 18.5472 21.3688 18.4519C21.3466 18.4769 21.3145 18.5002 21.2725 18.5221C21.2307 18.5439 21.1843 18.5549 21.1335 18.5549C21.0497 18.5549 20.9795 18.527 20.923 18.4714C20.8666 18.4157 20.8382 18.3418 20.8382 18.2495C20.8382 18.1574 20.8688 18.0831 20.9297 18.027C20.9909 17.9709 21.0677 17.9429 21.1605 17.9429C21.3102 17.9429 21.4135 18.0097 21.4705 18.1433C21.5025 18.2199 21.5186 18.3063 21.5186 18.4026C21.5186 18.4988 21.5083 18.579 21.4879 18.6432C21.4675 18.7074 21.4393 18.758 21.4037 18.7955C21.3341 18.8685 21.2489 18.9051 21.1478 18.9051C21.0466 18.9051 20.955 18.8736 20.8731 18.8102L20.952 18.6939C20.9724 18.7117 20.9999 18.7278 21.0343 18.7421C21.0684 18.7562 21.0989 18.7633 21.1255 18.7633ZM21.1544 18.4158C21.2083 18.4158 21.2533 18.401 21.2894 18.371C21.3255 18.3411 21.3435 18.3024 21.3435 18.2547C21.3435 18.2071 21.3262 18.166 21.2914 18.1318C21.2566 18.0974 21.2131 18.0803 21.1609 18.0803C21.1088 18.0803 21.0659 18.0957 21.032 18.1265C20.9982 18.1573 20.9812 18.1967 20.9812 18.2447C20.9812 18.2929 20.9964 18.3335 21.0272 18.3665C21.058 18.3995 21.1004 18.4158 21.1544 18.4158Z" fill="#2F4859"/>
<path d="M24.9604 21.7651C24.8775 21.7651 24.8164 21.7932 24.7772 21.8494C24.738 21.9055 24.7179 21.9812 24.7172 22.0766C24.7394 22.0516 24.7716 22.0283 24.8133 22.0064C24.8553 21.9846 24.9016 21.9736 24.9523 21.9736C25.0361 21.9736 25.1063 22.0015 25.1628 22.0571C25.2195 22.1128 25.2476 22.1869 25.2476 22.279C25.2476 22.3712 25.217 22.4454 25.1561 22.5016C25.0949 22.5576 25.0182 22.5858 24.9256 22.5858C24.7759 22.5858 24.6723 22.519 24.6155 22.3854C24.5835 22.3087 24.5675 22.2222 24.5675 22.126C24.5675 22.0298 24.5775 21.9497 24.598 21.8854C24.6187 21.8212 24.6467 21.7705 24.6824 21.7331C24.7518 21.66 24.8373 21.6235 24.9384 21.6235C25.0395 21.6235 25.131 21.6551 25.213 21.7183L25.1341 21.8346C25.1137 21.8168 25.0861 21.8008 25.0519 21.7865C25.0175 21.7722 24.987 21.7651 24.9604 21.7651ZM24.9316 22.1127C24.8777 22.1127 24.8325 22.1276 24.7964 22.1574C24.7603 22.1873 24.7423 22.2261 24.7423 22.2737C24.7423 22.3214 24.7598 22.3624 24.7946 22.3967C24.8291 22.4311 24.8728 22.4482 24.9255 22.4482C24.978 22.4482 25.0218 22.4328 25.0564 22.402C25.0912 22.3713 25.1085 22.3321 25.1085 22.2844C25.1085 22.2368 25.0925 22.1961 25.0605 22.1627C25.0285 22.1293 24.9853 22.1127 24.9316 22.1127Z" fill="#2F4859"/>
<path d="M28.3431 18.3169V18.1765H28.8898V18.2996L28.6639 18.5522C28.7495 18.5549 28.8163 18.5819 28.8644 18.6331C28.9124 18.6844 28.9366 18.7456 28.9366 18.8168C28.9366 18.9122 28.9041 18.9871 28.8396 19.0414C28.775 19.0957 28.6918 19.1229 28.5903 19.1229C28.4887 19.1229 28.3892 19.0903 28.2921 19.0253L28.3589 18.8984C28.4356 18.9518 28.5159 18.9785 28.5996 18.9785C28.654 18.9785 28.6987 18.9659 28.7338 18.9405C28.769 18.915 28.7867 18.8785 28.7867 18.8309C28.7867 18.7832 28.767 18.7451 28.7277 18.7165C28.6885 18.688 28.6342 18.6737 28.5647 18.6737C28.5299 18.6737 28.4966 18.6787 28.4644 18.6884V18.5682L28.681 18.3169H28.3431Z" fill="#2F4859"/>
<path d="M25.1314 16.1057H24.9319V18.6307H25.1314V16.1057Z" fill="#2F4859"/>
<path d="M24.832 18.5258H22.9945V18.7422H24.832V18.5258Z" fill="#2F4859"/>
<path d="M27.0733 20.9949L27.1675 20.912L24.3144 17.667L24.2202 17.7498L27.0733 20.9949Z" fill="#E56353"/>
<path d="M25.0251 18.9561C25.2046 18.9561 25.35 18.8106 25.35 18.6311C25.35 18.4516 25.2046 18.3062 25.0251 18.3062C24.8456 18.3062 24.7001 18.4516 24.7001 18.6311C24.7001 18.8106 24.8456 18.9561 25.0251 18.9561Z" fill="#D03B00"/>
<path d="M50 46.8057H0V48.7782H50V46.8057Z" fill="#3A556A"/>
<path d="M27.9384 37.6606H21.9884V46.8091H27.9384V37.6606Z" fill="white"/>
<path d="M16.0281 22.8779H13.3081V27.5939H16.0281V22.8779Z" fill="#FF4B00"/>
<path d="M13.3081 27.5937V22.8779H16.0283L13.3081 27.5937Z" fill="#D03B00"/>
<path d="M16.0281 30.2606H13.3081V34.9766H16.0281V30.2606Z" fill="#FF4B00"/>
<path d="M13.3081 34.9759V30.26H16.0283L13.3081 34.9759Z" fill="#D03B00"/>
<path d="M16.0281 37.6407H13.3081V42.3567H16.0281V37.6407Z" fill="#FF4B00"/>
<path d="M13.3081 42.3572V37.6414H16.0283L13.3081 42.3572Z" fill="#D03B00"/>
<path d="M11.5496 22.8779H8.82954V27.5939H11.5496V22.8779Z" fill="#FF4B00"/>
<path d="M8.8297 27.5937V22.8779H11.5499L8.8297 27.5937Z" fill="#D03B00"/>
<path d="M11.5496 30.2606H8.82954V34.9766H11.5496V30.2606Z" fill="#FF4B00"/>
<path d="M8.8297 34.9759V30.26H11.5499L8.8297 34.9759Z" fill="#D03B00"/>
<path d="M11.5496 37.6407H8.82954V42.3567H11.5496V37.6407Z" fill="#FF4B00"/>
<path d="M8.8297 42.3572V37.6414H11.5499L8.8297 42.3572Z" fill="#D03B00"/>
<path d="M7.07152 22.8779H4.35149V27.5939H7.07152V22.8779Z" fill="#FF4B00"/>
<path d="M4.35133 27.5937V22.8779H7.07148L4.35133 27.5937Z" fill="#D03B00"/>
<path d="M7.07152 30.2606H4.35149V34.9766H7.07152V30.2606Z" fill="#FF4B00"/>
<path d="M4.35133 34.9759V30.26H7.07148L4.35133 34.9759Z" fill="#D03B00"/>
<path d="M7.07152 37.6407H4.35149V42.3567H7.07152V37.6407Z" fill="#FF4B00"/>
<path d="M4.35133 42.3572V37.6414H7.07148L4.35133 42.3572Z" fill="#D03B00"/>
<path d="M23.788 26.7759H19.71V30.3269H23.788V26.7759Z" fill="#FF4B00"/>
<path d="M19.7124 30.3264V26.7753H23.7902L19.7124 30.3264Z" fill="#D03B00"/>
<path d="M29.978 26.7759H25.8999V30.3269H29.978V26.7759Z" fill="#FF4B00"/>
<path d="M25.8998 30.3264V26.7753H29.9776L25.8998 30.3264Z" fill="#D03B00"/>
<path d="M23.877 31.7609H19.799V35.3119H23.877V31.7609Z" fill="#FF4B00"/>
<path d="M19.7992 35.3108V31.7595H23.8769L19.7992 35.3108Z" fill="#D03B00"/>
<path d="M30.0644 31.7609H25.9864V35.3119H30.0644V31.7609Z" fill="#FF4B00"/>
<path d="M25.9865 35.3108V31.7595H30.0643L25.9865 35.3108Z" fill="#D03B00"/>
</svg>
