<svg width="50" height="50" viewBox="0 0 50 50" fill="none" xmlns="http://www.w3.org/2000/svg">
<g clip-path="url(#clip0_1_4013)">
<path d="M13.0833 20.8084H13.0475C2.41167 20.3609 0.932507 13.4725 0.83334 7.52171C0.828918 7.30192 0.868683 7.08348 0.950278 6.87935C1.03187 6.67522 1.15363 6.48956 1.30834 6.33337C1.46419 6.17557 1.64971 6.05015 1.85423 5.96433C2.05874 5.87852 2.27822 5.83402 2.50001 5.83337H9.47501C9.69602 5.83337 9.90798 5.92117 10.0643 6.07745C10.2205 6.23373 10.3083 6.44569 10.3083 6.66671C10.3083 6.88772 10.2205 7.09968 10.0643 7.25596C9.90798 7.41224 9.69602 7.50004 9.47501 7.50004H2.50001C2.59667 13.3159 3.95084 18.7575 13.1183 19.1425C13.3394 19.1471 13.5495 19.2392 13.7026 19.3987C13.8557 19.5582 13.9391 19.7719 13.9346 19.993C13.9301 20.214 13.8379 20.4241 13.6784 20.5772C13.5189 20.7303 13.3052 20.8137 13.0842 20.8092L13.0833 20.8084Z" fill="#E8AE3A"/>
<path d="M36.9167 20.8084C36.6957 20.8129 36.4819 20.7295 36.3224 20.5764C36.1629 20.4233 36.0708 20.2131 36.0663 19.9921C36.0617 19.7711 36.1452 19.5574 36.2983 19.3979C36.4514 19.2384 36.6615 19.1462 36.8825 19.1417C46.0492 18.7567 47.4042 13.315 47.5009 7.49337L40.525 7.50004C40.304 7.50004 40.0921 7.41224 39.9358 7.25596C39.7795 7.09968 39.6917 6.88772 39.6917 6.66671C39.6917 6.44569 39.7795 6.23373 39.9358 6.07745C40.0921 5.92117 40.304 5.83337 40.525 5.83337H47.5C47.7218 5.83402 47.9413 5.87852 48.1458 5.96433C48.3503 6.05015 48.5358 6.17557 48.6917 6.33337C48.8465 6.48968 48.9683 6.67549 49.0499 6.87976C49.1314 7.08404 49.1712 7.30262 49.1667 7.52254C49.0675 13.4725 47.5884 20.3609 36.9517 20.8075L36.9167 20.8084Z" fill="#E8AE3A"/>
<path d="M29.6 33.0417C30.1604 34.0939 30.9388 35.0144 31.8833 35.7417L32.5 45.8334H17.5L18.1167 35.7417C19.0653 35.0187 19.8445 34.0972 20.4 33.0417H29.6Z" fill="#E8AE3A"/>
<path d="M10 45H40V49.1667H10V45Z" fill="#BF8E37"/>
<path d="M29.6 33.0416C28.1793 33.7807 26.6014 34.1666 25 34.1666C23.3985 34.1666 21.8207 33.7807 20.4 33.0416C20.8908 32.1201 21.2446 31.1319 21.45 30.1083H28.55C28.7257 30.9685 29.0026 31.8048 29.375 32.5999C29.4417 32.7499 29.5167 32.8916 29.6 33.0416Z" fill="#BF8E37"/>
<path d="M40.7408 0.833374C40.8632 0.833699 40.9842 0.858201 41.0971 0.90547C41.2099 0.952738 41.3123 1.02184 41.3983 1.10881C41.4844 1.19578 41.5524 1.29889 41.5984 1.41222C41.6445 1.52556 41.6677 1.64688 41.6667 1.76921C41.6342 5.83337 40.7925 22.0617 30.0225 29.3059C28.5368 30.3017 26.7886 30.8334 25 30.8334C23.2114 30.8334 21.4632 30.3017 19.9775 29.3059C9.20751 22.0617 8.36584 5.83337 8.33334 1.76921C8.33235 1.64688 8.35555 1.52556 8.40161 1.41222C8.44766 1.29889 8.51566 1.19578 8.6017 1.10881C8.68774 1.02184 8.79011 0.952738 8.90295 0.90547C9.01578 0.858201 9.13684 0.833699 9.25918 0.833374H40.7408Z" fill="#FCCB55"/>
<path d="M10 49.1667C15.0626 49.1667 19.1667 45.0626 19.1667 40C19.1667 34.9374 15.0626 30.8334 10 30.8334C4.9374 30.8334 0.833344 34.9374 0.833344 40C0.833344 45.0626 4.9374 49.1667 10 49.1667Z" fill="#ED5537"/>
<path d="M49.1667 40C49.1691 41.4669 48.8183 42.9127 48.1438 44.2153C47.4693 45.5179 46.491 46.6389 45.2917 47.4834C44.8378 47.8119 44.3521 48.0939 43.8417 48.325C42.6369 48.8796 41.3263 49.1667 40 49.1667C38.6737 49.1667 37.3631 48.8796 36.1583 48.325C35.6479 48.0939 35.1621 47.8119 34.7083 47.4834C33.5114 46.6366 32.5351 45.5151 31.8613 44.213C31.1874 42.9109 30.8358 41.4662 30.8358 40C30.8358 38.5339 31.1874 37.0892 31.8613 35.787C32.5351 34.4849 33.5114 33.3634 34.7083 32.5167C35.1621 32.1881 35.6479 31.9061 36.1583 31.675C37.3631 31.1205 38.6737 30.8334 40 30.8334C41.3263 30.8334 42.6369 31.1205 43.8417 31.675C44.3521 31.9061 44.8378 32.1881 45.2917 32.5167C46.491 33.3612 47.4693 34.4822 48.1438 35.7847C48.8183 37.0873 49.1691 38.5332 49.1667 40Z" fill="#F0F2F5"/>
<path d="M18.3333 24.21C18.2122 24.2101 18.0924 24.1837 17.9824 24.1328C17.8725 24.0818 17.775 24.0075 17.6967 23.915C12.5692 17.8617 11.2575 8.97918 10.9317 4.22335C10.9166 4.00233 10.99 3.7844 11.1357 3.61749C11.2813 3.45059 11.4873 3.34838 11.7083 3.33335C11.9294 3.31832 12.1473 3.3917 12.3142 3.53736C12.4811 3.68301 12.5833 3.889 12.5983 4.11001C12.9092 8.66251 14.1517 17.1475 18.9717 22.8375C19.0747 22.959 19.1408 23.1074 19.1621 23.2652C19.1834 23.4231 19.159 23.5837 19.0919 23.7281C19.0247 23.8725 18.9176 23.9947 18.7831 24.0801C18.6487 24.1655 18.4926 24.2106 18.3333 24.21Z" fill="#FFDB8A"/>
<path d="M21.6667 27.2559C21.4975 27.2556 21.3324 27.2039 21.1933 27.1075C20.8922 26.8992 20.6 26.6831 20.3167 26.4592C20.1434 26.322 20.0317 26.1215 20.0063 25.9019C19.9808 25.6823 20.0436 25.4616 20.1808 25.2884C20.3181 25.1151 20.5185 25.0034 20.7381 24.978C20.9577 24.9525 21.1784 25.0153 21.3517 25.1525C21.6078 25.3548 21.8711 25.5492 22.1417 25.7359C22.2884 25.8368 22.399 25.982 22.4571 26.1503C22.5153 26.3186 22.518 26.5011 22.4649 26.6711C22.4118 26.8411 22.3056 26.9896 22.162 27.0948C22.0183 27.2 21.8447 27.2565 21.6667 27.2559Z" fill="#FFDB8A"/>
<path d="M38.535 42.1084L38.2083 42.0251C38.2583 41.6334 38.2917 41.2334 38.3167 40.8334H38.3333C38.5544 40.8334 38.7663 40.7456 38.9226 40.5893C39.0789 40.433 39.1667 40.2211 39.1667 40C39.1667 39.779 39.0789 39.5671 38.9226 39.4108C38.7663 39.2545 38.5544 39.1667 38.3333 39.1667H38.3167C38.2917 38.6934 38.25 38.2276 38.1833 37.7709L38.535 37.6834C38.6434 37.659 38.7457 37.6132 38.8361 37.5487C38.9265 37.4842 39.0031 37.4022 39.0614 37.3077C39.1197 37.2132 39.1585 37.1079 39.1755 36.9982C39.1926 36.8885 39.1875 36.7764 39.1606 36.6687C39.1337 36.5609 39.0856 36.4596 39.019 36.3707C38.9524 36.2818 38.8687 36.2072 38.7729 36.1511C38.677 36.095 38.5709 36.0587 38.4608 36.0442C38.3507 36.0297 38.2388 36.0373 38.1317 36.0667L37.9075 36.1226C37.8167 35.7576 37.725 35.4009 37.6092 35.0442L37.8725 34.9126C37.9705 34.8636 38.0578 34.7959 38.1296 34.7132C38.2013 34.6306 38.2561 34.5346 38.2908 34.4307C38.3255 34.3269 38.3393 34.2172 38.3316 34.108C38.3239 33.9988 38.2948 33.8922 38.2458 33.7942C38.1969 33.6963 38.1292 33.6089 38.0465 33.5372C37.9638 33.4654 37.8678 33.4106 37.764 33.3759C37.6601 33.3413 37.5505 33.3274 37.4413 33.3351C37.3321 33.3428 37.2255 33.372 37.1275 33.4209L37.0575 33.4559C36.8045 32.8398 36.5039 32.2444 36.1583 31.675C35.6479 31.9061 35.1622 32.1881 34.7083 32.5167C35.0372 33.0555 35.3212 33.6205 35.5575 34.2059L35.4608 34.2542C35.2594 34.3374 35.0992 34.4973 35.0156 34.6985C34.932 34.8998 34.9318 35.1261 35.015 35.3276C35.0982 35.529 35.2581 35.6892 35.4593 35.7728C35.6606 35.8564 35.8869 35.8566 36.0883 35.7734V35.7834C36.1633 36.0334 36.23 36.2917 36.28 36.5501V36.5684C36.1235 36.6463 35.9962 36.7725 35.917 36.9284C35.8379 37.0843 35.8109 37.2615 35.8403 37.4339C35.8696 37.6062 35.9537 37.7646 36.08 37.8854C36.2063 38.0063 36.3682 38.0833 36.5417 38.1051V38.1167C36.5917 38.4667 36.6167 38.8167 36.6333 39.1667V39.1717C36.4137 39.1717 36.203 39.259 36.0476 39.4143C35.8923 39.5697 35.805 39.7804 35.805 40C35.805 40.2197 35.8923 40.4304 36.0476 40.5858C36.203 40.7411 36.4137 40.8284 36.6333 40.8284V40.8334C36.6253 41.1152 36.6002 41.3963 36.5583 41.675C36.3786 41.6944 36.2103 41.7728 36.0798 41.8978C35.9492 42.0228 35.8636 42.1875 35.8364 42.3662C35.8092 42.5449 35.8419 42.7276 35.9294 42.8858C36.0168 43.0441 36.1542 43.1689 36.32 43.2409V43.2559C36.27 43.5142 36.2117 43.7725 36.145 44.0225V44.0284C36.0461 43.9831 35.9392 43.9578 35.8305 43.9539C35.7218 43.9499 35.6133 43.9674 35.5114 44.0054C35.4094 44.0433 35.316 44.101 35.2363 44.1751C35.1566 44.2492 35.0923 44.3382 35.0471 44.4371C35.0018 44.5361 34.9765 44.6429 34.9726 44.7517C34.9686 44.8604 34.9861 44.9688 35.0241 45.0707C35.062 45.1727 35.1197 45.2662 35.1938 45.3458C35.2679 45.4255 35.3569 45.4898 35.4558 45.535L35.6225 45.6184C35.3727 46.2657 35.0659 46.8895 34.7058 47.4825C35.1597 47.8111 35.6454 48.0931 36.1558 48.3242C36.5306 47.6997 36.8537 47.0456 37.1217 46.3684C37.3195 46.4672 37.5484 46.4833 37.7582 46.4133C37.862 46.3787 37.958 46.3239 38.0407 46.2521C38.1234 46.1803 38.1911 46.093 38.24 45.9951C38.2889 45.8971 38.3181 45.7905 38.3258 45.6813C38.3335 45.5721 38.3196 45.4624 38.285 45.3586C38.2503 45.2547 38.1955 45.1587 38.1237 45.076C38.052 44.9934 37.9646 44.9256 37.8667 44.8767L37.6608 44.7742C37.7692 44.4176 37.86 44.0517 37.9433 43.6784L38.1258 43.7242C38.1937 43.7414 38.2634 43.75 38.3333 43.75C38.5365 43.7496 38.7326 43.675 38.8846 43.5401C39.0366 43.4053 39.1341 43.2196 39.1588 43.0179C39.1834 42.8162 39.1336 42.6125 39.0185 42.445C38.9035 42.2775 38.7321 42.1578 38.535 42.1084Z" fill="#EC3A48"/>
<path d="M44.5392 45.5376C44.6381 45.4923 44.7272 45.428 44.8012 45.3483C44.8753 45.2687 44.933 45.1752 44.9709 45.0732C45.0089 44.9713 45.0264 44.8629 45.0225 44.7542C45.0185 44.6454 44.9932 44.5386 44.9479 44.4396C44.9027 44.3407 44.8384 44.2517 44.7587 44.1776C44.6791 44.1035 44.5856 44.0458 44.4836 44.0079C44.3817 43.9699 44.2732 43.9524 44.1645 43.9564C44.0558 43.9603 43.9489 43.9856 43.85 44.0309V44.0251C43.7833 43.7751 43.725 43.5167 43.675 43.2584V43.2434C43.852 43.1663 43.9961 43.0293 44.082 42.8564C44.168 42.6836 44.1903 42.486 44.145 42.2984C44.1033 42.1355 44.0134 41.9891 43.887 41.8783C43.7606 41.7675 43.6036 41.6975 43.4367 41.6776C43.3936 41.398 43.3674 41.1161 43.3583 40.8334V40.8284C43.578 40.8284 43.7887 40.7411 43.9441 40.5858C44.0994 40.4304 44.1867 40.2197 44.1867 40.0001C44.1867 39.7804 44.0994 39.5697 43.9441 39.4143C43.7887 39.259 43.578 39.1717 43.3583 39.1717V39.1667C43.375 38.8167 43.4 38.4667 43.45 38.1167V38.1051C43.6235 38.0833 43.7854 38.0063 43.9117 37.8854C44.038 37.7646 44.122 37.6062 44.1514 37.4339C44.1807 37.2615 44.1538 37.0843 44.0746 36.9284C43.9954 36.7725 43.8682 36.6463 43.7117 36.5684V36.5501C43.7617 36.2917 43.8283 36.0334 43.9033 35.7834V35.7734C44.1017 35.8416 44.3186 35.8316 44.5098 35.7453C44.701 35.659 44.852 35.503 44.9321 35.3091C45.0122 35.1153 45.0153 34.8982 44.9407 34.7021C44.8661 34.5061 44.7195 34.3459 44.5308 34.2542L44.4342 34.2059C44.6731 33.6202 44.9599 33.0553 45.2917 32.5167C44.8379 32.1881 44.3521 31.9061 43.8417 31.675C43.4961 32.2444 43.1955 32.8398 42.9425 33.4559L42.8725 33.4209C42.6747 33.3221 42.4458 33.3059 42.236 33.3759C42.0263 33.446 41.853 33.5964 41.7542 33.7942C41.6554 33.992 41.6392 34.221 41.7092 34.4307C41.7792 34.6404 41.9297 34.8138 42.1275 34.9126L42.3908 35.0442C42.275 35.4009 42.1833 35.7576 42.0925 36.1226L41.8683 36.0667C41.656 36.0189 41.4333 36.0561 41.2481 36.1704C41.0628 36.2846 40.9295 36.4668 40.8768 36.678C40.8242 36.8892 40.8562 37.1126 40.9661 37.3005C41.076 37.4884 41.2551 37.6258 41.465 37.6834L41.8167 37.7709C41.75 38.2276 41.7083 38.6934 41.6833 39.1667H41.6667C41.4457 39.1667 41.2337 39.2545 41.0774 39.4108C40.9211 39.5671 40.8333 39.779 40.8333 40.0001C40.8333 40.2211 40.9211 40.433 41.0774 40.5893C41.2337 40.7456 41.4457 40.8334 41.6667 40.8334H41.6833C41.7083 41.2334 41.7417 41.6334 41.7917 42.0251L41.465 42.1084C41.2678 42.1578 41.0955 42.2776 40.9805 42.4452C40.8655 42.6127 40.8157 42.8166 40.8405 43.0183C40.8653 43.2201 40.9629 43.4058 41.1151 43.5406C41.2672 43.6753 41.4634 43.7498 41.6667 43.7501C41.7349 43.7499 41.8029 43.7415 41.8692 43.7251L42.0517 43.6792C42.135 44.0526 42.2258 44.4184 42.3342 44.7751L42.1283 44.8776C41.9305 44.9763 41.7801 45.1497 41.7101 45.3594C41.64 45.5691 41.6562 45.7981 41.755 45.9959C41.8538 46.1937 42.0271 46.3442 42.2369 46.4142C42.4466 46.4842 42.6755 46.468 42.8733 46.3692C43.1422 47.0465 43.466 47.7007 43.8417 48.3251C44.3521 48.094 44.8379 47.812 45.2917 47.4834C44.9316 46.8903 44.6248 46.2665 44.375 45.6192L44.5392 45.5376Z" fill="#EC3A48"/>
<path d="M27.5 38.3333H22.5C22.279 38.3333 22.067 38.2455 21.9107 38.0892C21.7545 37.9329 21.6667 37.721 21.6667 37.5C21.6667 37.2789 21.7545 37.067 21.9107 36.9107C22.067 36.7544 22.279 36.6666 22.5 36.6666H27.5C27.721 36.6666 27.933 36.7544 28.0892 36.9107C28.2455 37.067 28.3333 37.2789 28.3333 37.5C28.3333 37.721 28.2455 37.9329 28.0892 38.0892C27.933 38.2455 27.721 38.3333 27.5 38.3333Z" fill="#BF8E37"/>
<path d="M19.0583 41.375C17.2398 41.9486 15.3547 42.2847 13.45 42.375C13.7647 44.1605 14.4488 45.8607 15.4583 47.3667C15.0139 47.7031 14.5364 47.9934 14.0333 48.2333C12.8745 46.4951 12.1015 44.5287 11.7667 42.4667C11.2083 42.4833 10.625 42.5 9.99999 42.5C9.70832 42.5 9.43332 42.4917 9.15832 42.4917C9.38332 46.725 10.1667 48.5583 10.5 49.1583C10.3333 49.1583 10.1667 49.1667 9.99999 49.1667C9.54259 49.1671 9.08578 49.1337 8.63332 49.0667C7.91332 46.9273 7.52549 44.6902 7.48332 42.4333C6.53332 42.3917 5.68332 42.3167 4.92499 42.225C4.76559 43.8027 4.42731 45.3571 3.91665 46.8583C3.43244 46.4324 2.99649 45.9545 2.61665 45.4333C2.94456 44.3039 3.16498 43.1459 3.27499 41.975C2.48368 41.8319 1.70385 41.6313 0.941654 41.375C0.867683 40.9204 0.831448 40.4605 0.833321 40C0.833321 39.85 0.833321 39.7 0.841654 39.55C1.65261 39.8918 2.49968 40.1406 3.36665 40.2917C3.36665 40.2 3.38332 40.1 3.38332 40C3.38848 38.1594 3.13317 36.3274 2.62499 34.5583C3.00278 34.038 3.43896 33.5627 3.92499 33.1417C4.67587 35.35 5.05601 37.6675 5.04999 40C5.04999 40.1833 5.03332 40.375 5.02499 40.5583C5.73332 40.65 6.52499 40.7167 7.43332 40.7667C7.43332 40.5083 7.42499 40.2667 7.42499 40C7.42499 35.1417 8.05832 32.4083 8.63332 30.9417C9.08508 30.8677 9.54222 30.8315 9.99999 30.8333C10.1667 30.8333 10.3417 30.8417 10.5083 30.8417C10.1 31.5667 9.09166 33.9833 9.09166 40C9.09166 40.2833 9.09999 40.55 9.09999 40.825C9.39999 40.825 9.68332 40.8333 9.99999 40.8333C10.5667 40.8333 11.0833 40.825 11.5917 40.8083C11.575 40.5417 11.5583 40.2667 11.5583 40C11.5551 37.0718 12.4161 34.2077 14.0333 31.7667C14.5364 32.0065 15.0139 32.2969 15.4583 32.6333C13.9953 34.8109 13.2175 37.3766 13.225 40C13.225 40.2417 13.2417 40.4833 13.25 40.725C15.2705 40.6597 17.2666 40.2627 19.1583 39.55C19.1667 39.7 19.1667 39.85 19.1667 40C19.1685 40.4605 19.1323 40.9204 19.0583 41.375Z" fill="#843F38"/>
</g>
<defs>
<clipPath id="clip0_1_4013">
<rect width="50" height="50" fill="white"/>
</clipPath>
</defs>
</svg>
