<svg width="19" height="20" viewBox="0 0 19 20" fill="none" xmlns="http://www.w3.org/2000/svg">
<path d="M9.5 3.625C10.0868 3.625 10.5625 3.1493 10.5625 2.5625C10.5625 1.9757 10.0868 1.5 9.5 1.5C8.9132 1.5 8.4375 1.9757 8.4375 2.5625C8.4375 3.1493 8.9132 3.625 9.5 3.625Z" stroke="black" stroke-linecap="round" stroke-linejoin="round"/>
<path d="M16.9375 3.625C17.5243 3.625 18 3.1493 18 2.5625C18 1.9757 17.5243 1.5 16.9375 1.5C16.3507 1.5 15.875 1.9757 15.875 2.5625C15.875 3.1493 16.3507 3.625 16.9375 3.625Z" stroke="black" stroke-linecap="round" stroke-linejoin="round"/>
<path d="M2.0625 3.625C2.6493 3.625 3.125 3.1493 3.125 2.5625C3.125 1.9757 2.6493 1.5 2.0625 1.5C1.4757 1.5 1 1.9757 1 2.5625C1 3.1493 1.4757 3.625 2.0625 3.625Z" stroke="black" stroke-linecap="round" stroke-linejoin="round"/>
<path d="M9.5 11.0625C10.0868 11.0625 10.5625 10.5868 10.5625 10C10.5625 9.4132 10.0868 8.9375 9.5 8.9375C8.9132 8.9375 8.4375 9.4132 8.4375 10C8.4375 10.5868 8.9132 11.0625 9.5 11.0625Z" stroke="black" stroke-linecap="round" stroke-linejoin="round"/>
<path d="M16.9375 11.0625C17.5243 11.0625 18 10.5868 18 10C18 9.4132 17.5243 8.9375 16.9375 8.9375C16.3507 8.9375 15.875 9.4132 15.875 10C15.875 10.5868 16.3507 11.0625 16.9375 11.0625Z" stroke="black" stroke-linecap="round" stroke-linejoin="round"/>
<path d="M2.0625 11.0625C2.6493 11.0625 3.125 10.5868 3.125 10C3.125 9.4132 2.6493 8.9375 2.0625 8.9375C1.4757 8.9375 1 9.4132 1 10C1 10.5868 1.4757 11.0625 2.0625 11.0625Z" stroke="black" stroke-linecap="round" stroke-linejoin="round"/>
<path d="M9.5 18.5C10.0868 18.5 10.5625 18.0243 10.5625 17.4375C10.5625 16.8507 10.0868 16.375 9.5 16.375C8.9132 16.375 8.4375 16.8507 8.4375 17.4375C8.4375 18.0243 8.9132 18.5 9.5 18.5Z" stroke="black" stroke-linecap="round" stroke-linejoin="round"/>
<path d="M16.9375 18.5C17.5243 18.5 18 18.0243 18 17.4375C18 16.8507 17.5243 16.375 16.9375 16.375C16.3507 16.375 15.875 16.8507 15.875 17.4375C15.875 18.0243 16.3507 18.5 16.9375 18.5Z" stroke="black" stroke-linecap="round" stroke-linejoin="round"/>
<path d="M2.0625 18.5C2.6493 18.5 3.125 18.0243 3.125 17.4375C3.125 16.8507 2.6493 16.375 2.0625 16.375C1.4757 16.375 1 16.8507 1 17.4375C1 18.0243 1.4757 18.5 2.0625 18.5Z" stroke="black" stroke-linecap="round" stroke-linejoin="round"/>
</svg>
