<svg width="49" height="49" viewBox="0 0 49 49" fill="none" xmlns="http://www.w3.org/2000/svg">
<g clip-path="url(#clip0_1_3213)">
<path d="M9.35019 48.1903C19.4497 49.2699 29.5493 49.2699 39.6488 48.1903C43.765 47.7128 47.7128 43.765 48.1904 39.6488C49.2699 29.5493 49.2699 19.4497 48.1904 9.35018C47.7128 5.23398 43.765 1.28719 39.6488 0.808672C29.5493 -0.270859 19.4497 -0.270859 9.35019 0.808672C5.234 1.28719 1.28721 5.23398 0.809648 9.35018C-0.269883 19.4497 -0.269883 29.5493 0.809648 39.6488C1.28721 43.765 5.23496 47.7118 9.35115 48.1903H9.35019ZM9.91771 20.8164C11.4518 19.4402 13.8119 19.5674 15.1881 21.1025L20.8231 27.3835L33.8751 13.5429C35.2896 12.0433 37.6515 11.9734 39.1512 13.3879C40.6509 14.8024 40.7198 17.1643 39.3062 18.664L23.4702 35.457C22.7649 36.2054 21.782 36.6284 20.7551 36.6284C20.7398 36.6284 20.7245 36.6284 20.7082 36.6284C19.6641 36.615 18.6736 36.1662 17.9759 35.3891L9.63156 26.0877C8.25535 24.5536 8.38264 22.1935 9.91771 20.8173V20.8164Z" fill="url(#paint0_linear_1_3213)"/>
</g>
<defs>
<linearGradient id="paint0_linear_1_3213" x1="0" y1="24.5" x2="49" y2="24.5" gradientUnits="userSpaceOnUse">
<stop stop-color="#0CAA0C"/>
<stop offset="0.6" stop-color="#4BD14B"/>
<stop offset="1" stop-color="#60E260"/>
</linearGradient>
<clipPath id="clip0_1_3213">
<rect width="49" height="49" fill="white"/>
</clipPath>
</defs>
</svg>
